<?xml version="1.0" encoding="UTF-8"?>
<svg version="1.1" viewBox="0 0 1600 1600" width="1280" height="1280" xmlns="http://www.w3.org/2000/svg">
<path transform="translate(0)" d="m0 0h1600v1600h-1600v-1600z" fill="#000002"/>
<path transform="translate(641 1016)" d="m0 0c0.452 1.18 0.905 2.36 1.37 3.57 0.312 0.753 0.624 1.51 0.945 2.28 1.06 2.61 2.03 5.25 2.99 7.9 2.75 7.42 5.64 14.7 9.06 21.8 3.38 7.12 6.25 14.3 8.79 21.7 1.16 3.31 1.16 3.31 2.86 6.49 1.35 2.77 1.35 2.77 1.35 5.77 1.32 0.33 2.64 0.66 4 1 0.233-0.791 0.233-0.791 0.471-1.6 2.99-10.1 6.07-20.2 9.45-30.2 1.14-3.41 2.18-6.85 3.2-10.3 1.26-4.2 2.57-8.38 3.88-12.6 0.249-0.8 0.499-1.6 0.756-2.42 4.46-14.2 4.46-14.2 6.24-16 2.41-0.113 4.8-0.164 7.21-0.168 1.09-0.00499 1.09-0.00499 2.19-0.0101 1.54-0.00507 3.07-0.00741 4.61-0.00725 2.35-0.00218 4.7-0.0203 7.04-0.0393 1.49-0.00293 2.98-0.00492 4.47-0.00586 0.703-0.00719 1.41-0.0144 2.13-0.0218 3.68 0.0172 5.2 0.154 8.35 2.25-0.415 1.06-0.83 2.13-1.26 3.22-2.12 5.66-3.85 11.4-5.62 17.2-0.797 2.59-1.59 5.17-2.39 7.76-0.213 0.69-0.427 1.38-0.646 2.09-2.84 9.17-5.74 18.3-8.65 27.5-0.281 0.886-0.562 1.77-0.852 2.68-3.57 11.3-7.16 22.5-10.8 33.7-2.45 7.64-4.82 15.3-7.19 23-3.31 10.7-6.72 21.4-10.2 32.1-3.79 11.7-7.48 23.4-11.1 35.2-1.8 5.78-3.61 11.6-5.54 17.3-2.07 6.2-4.01 12.4-5.98 18.7-0.344 1.08-0.688 2.16-1.04 3.28-0.466 1.47-0.466 1.47-0.942 2.97-0.8 2.38-0.8 2.38-1.8 4.38-3.96 0.0289-7.92 0.0468-11.9 0.0625-1.13 0.00838-2.26 0.0168-3.42 0.0254-1.61 0.00483-1.61 0.00483-3.26 0.00977-1.49 0.00786-1.49 0.00786-3.02 0.0159-2.43-0.114-2.43-0.114-4.43-1.11-1.25-2.74-2.4-5.46-3.5-8.25-0.308-0.764-0.616-1.53-0.934-2.32-0.862-2.14-1.72-4.29-2.57-6.43-1.39-3.5-2.82-6.99-4.28-10.5-1.84-4.4-3.65-8.81-5.44-13.2-0.458-1.13-0.915-2.26-1.39-3.42-0.931-2.3-1.86-4.6-2.79-6.91-2.51-6.19-5.14-12.3-7.94-18.4-1.86-4.15-3.52-8.37-5.17-12.6-2.46-6.23-5.01-12.4-7.85-18.4-1.83-4.1-3.37-8.31-4.96-12.5-1.3-3.36-2.74-6.63-4.23-9.9-1.39-3.13-2.64-6.32-3.9-9.5-2.66-6.67-5.4-13.3-8.44-19.8-2.56-5.57-4.77-11.3-6.95-17-4.56-11.9-9.67-23.6-14.7-35.4-7.65-18-7.65-18-10-25.5 2.9-2.9 5.91-2.32 9.81-2.33 0.807-0.0117 1.61-0.0233 2.45-0.0353 2.68-0.0361 5.36-0.0579 8.04-0.0792 1.87-0.0213 3.74-0.0432 5.61-0.0659 3.93-0.0455 7.86-0.0842 11.8-0.118 5-0.0432 10-0.0999 15-0.162 3.87-0.0466 7.74-0.0872 11.6-0.126 1.84-0.0189 3.68-0.0392 5.53-0.0611 29.7-0.34 29.7-0.34 33.8 3.41z" fill="#FBFCFD"/>
<path transform="translate(880 1014)" d="m0 0c1.36 0.00539 1.36 0.00539 2.74 0.0109 0.946-1.46e-4 1.89-2.92e-4 2.87-4.43e-4 3.14 7e-4 6.29 0.00849 9.43 0.0163 2.17 0.00186 4.35 0.00329 6.52 0.00429 5.73 0.00383 11.5 0.0137 17.2 0.0247 5.84 0.0102 11.7 0.0148 17.5 0.0198 11.5 0.0107 23 0.0278 34.4 0.0488 2.81 5.45 5.47 10.8 7.43 16.6 0.599 1.76 0.599 1.76 1.21 3.56 0.408 1.22 0.815 2.44 1.24 3.7 0.436 1.29 0.873 2.58 1.31 3.86 0.871 2.56 1.74 5.12 2.6 7.69 1.65 4.87 3.33 9.72 5.02 14.6 0.277 0.793 0.554 1.59 0.84 2.4 2.32 6.59 4.78 13.1 7.35 19.6h3c0.182-0.713 0.364-1.43 0.551-2.16 1.45-5.52 3.15-10.6 5.45-15.8 1.4-3.98 2.69-7.99 4-12 0.687-2.04 1.37-4.08 2.06-6.12 1.22-3.65 2.37-7.3 3.44-11 1.26-4.27 2.82-8.36 4.52-12.5 0.929-2.28 1.77-4.58 2.6-6.9 1.38-3.5 1.38-3.5 3.38-5.5 2.58-0.175 5.05-0.232 7.63-0.195 1.13 0.00424 1.13 0.00424 2.28 0.00858 2.4 0.0112 4.81 0.0363 7.21 0.0617 1.63 0.01 3.26 0.0192 4.89 0.0273 4 0.0221 7.99 0.0566 12 0.0977 1.66 4.04 0.183 7.29-1.21 11.2-0.365 1.06-0.365 1.06-0.738 2.13-0.799 2.3-1.61 4.59-2.43 6.89-0.556 1.59-1.11 3.18-1.66 4.77-1.64 4.69-3.3 9.37-4.96 14-0.232 0.651-0.463 1.3-0.702 1.97-2.43 6.82-4.88 13.6-7.35 20.4-2.88 7.96-5.67 16-8.46 23.9-4.59 13.1-9.21 26.2-13.9 39.3-0.374 1.06-0.748 2.11-1.13 3.2-4.11 11.6-8.23 23.2-12.4 34.8-3.52 9.71-6.89 19.5-10.2 29.2-3.07 8.94-6.2 17.9-9.38 26.8-0.645 1.81-0.645 1.81-1.3 3.66-0.396 1.11-0.793 2.22-1.2 3.36-0.35 0.978-0.7 1.96-1.06 2.96-0.873 2.34-0.873 2.34-1.87 4.34-3.77 0.087-7.54 0.14-11.3 0.188-1.07 0.0251-2.14 0.0503-3.25 0.0762-1.03 0.00967-2.06 0.0193-3.12 0.0293-0.948 0.0157-1.9 0.0314-2.87 0.0476-2.45-0.341-2.45-0.341-4.18-1.6-1.41-1.93-2.2-3.66-2.99-5.91-0.439-1.22-0.439-1.22-0.887-2.46-0.295-0.845-0.59-1.69-0.895-2.56-0.594-1.66-1.19-3.32-1.78-4.98-0.431-1.22-0.431-1.22-0.87-2.46-1.76-4.92-3.59-9.81-5.6-14.6-2.45-6.07-4.56-12.3-6.7-18.4-2.34-6.76-4.79-13.5-7.48-20.1-2.23-5.55-4.19-11.2-6.13-16.9-2.23-6.49-4.51-13-6.94-19.4-0.817-2.29-1.63-4.58-2.44-6.88-1.72-4.84-3.54-9.63-5.47-14.4-3.51-8.78-6.78-17.6-9.72-26.6-1.62-4.93-3.36-9.74-5.34-14.5-1.76-4.4-3.3-8.88-4.88-13.4-1.67-4.69-3.4-9.35-5.23-14-2.56-6.54-4.96-13.1-7.23-19.8-0.267-0.766-0.533-1.53-0.808-2.32-1.28-3.81-2.34-7.11-1.88-11.2 1.91-1.91 4.74-1.12 7.28-1.12z" fill="#FBFCFD"/>
<path transform="translate(349 622)" d="m0 0c2.64-3e-3 5.28-0.00637 7.92-0.0102 6.39-0.00824 12.8-0.0111 19.2-0.0116 5.19-4.77e-4 10.4-0.00254 15.6-0.0057 14.7-0.00878 29.5-0.0134 44.2-0.0127 0.791 4e-5 1.58 7.99e-5 2.4 1.21e-4 1.19 6.13e-5 1.19 6.13e-5 2.4 1.24e-4 12.9 4.08e-4 25.8-0.0092 38.6-0.0233 13.2-0.0143 26.5-0.0213 39.7-0.0204 7.43 3.32e-4 14.9-0.00243 22.3-0.0132 6.97-0.01 13.9-0.00979 20.9-0.00248 2.56 0.00105 5.13-0.00135 7.69-0.00736 3.48-0.00765 6.97-0.00312 10.5 0.00463 1.03-0.00514 2.05-0.0103 3.11-0.0156 1.39 0.0069 1.39 0.0069 2.81 0.0139 0.805-2.17e-4 1.61-4.35e-4 2.44-6.59e-4 1.95 0.25 1.95 0.25 3.95 2.25 0.227 2.98 0.227 2.98 0.195 6.76-0.00424 0.995-0.00424 0.995-0.00858 2.01-0.0112 2.12-0.0363 4.24-0.0617 6.36-0.01 1.44-0.0192 2.87-0.0273 4.31-0.0221 3.52-0.0566 7.04-0.0977 10.6-1.62 0.0297-1.62 0.0297-3.27 0.0601-4.07 0.0771-8.13 0.166-12.2 0.257-1.75 0.0379-3.49 0.0728-5.24 0.104-19.9-0.0706-19.9-0.0706-38.5 5.7-5.64 2.88-5.64 2.88-7.75 2.88-0.33 0.99-0.66 1.98-1 3-0.639 0.124-1.28 0.247-1.94 0.375-0.681 0.206-1.36 0.413-2.06 0.625-1.14 2.3-1.14 2.3-2 5-0.495 0.784-0.99 1.57-1.5 2.38-7.27 12.7-3.25 30.8 0.167 44.3 2.2 7.86 4.68 15.4 8.44 22.6 2.07 4.05 3.89 8.16 3.89 12.7h-102c-8.89-17.8-8.89-17.8-11.9-26.2-1.12-2.81-2.52-5.2-4.11-7.77-0.589-1.26-1.15-2.53-1.69-3.81-6.18-14.2-13.4-27.5-22.7-39.8-1.64-2.35-1.64-2.35-2.64-5.35-1.82-1.03-1.82-1.03-4-2-1.6-1.1-3.18-2.23-4.75-3.38-15.6-10.9-32.3-11.1-50.7-11.2-2.81-0.0366-5.61-0.077-8.42-0.123-1.73-0.0271-3.46-0.0485-5.19-0.0635-5.84-0.078-5.84-0.078-6.95-1.19-0.254-4.64-0.185-9.29-0.188-13.9-0.0122-1.31-0.0245-2.63-0.0371-3.98-0.0029-1.88-0.0029-1.88-0.00586-3.79-0.00411-1.16-0.00822-2.31-0.0125-3.5 0.243-2.78 0.243-2.78 2.24-4.78 13.9-2.05 28.4-1.15 42.4-1.15z" fill="#FBFCFD"/>
<path transform="translate(692 622)" d="m0 0c1.7-0.00234 1.7-0.00234 3.43-0.00473 3.77-0.00397 7.53-8.36e-4 11.3 0.00232 2.71-8.06e-4 5.42-0.0031 8.13-0.00531 6.58-0.00443 13.2-0.00349 19.7-5.87e-4 5.34 0.00226 10.7 0.00256 16 0.00148 1.14-2.3e-4 1.14-2.3e-4 2.31-4.64e-4 1.55-3.2e-4 3.09-6.44e-4 4.64-9.73e-4 14.5-0.00285 29 4.21e-4 43.5 0.0058 12.4 0.00448 24.9 0.00368 37.3-9.19e-4 14.4-0.00535 28.9-0.00746 43.3-0.00439 1.54 3.19e-4 3.08 6.33e-4 4.62 9.43e-4 0.757 1.54e-4 1.51 3.09e-4 2.29 4.68e-4 5.34 8.65e-4 10.7-5.97e-4 16-0.00295 6.5-0.0028 13-0.00206 19.5 0.00328 3.32 0.00264 6.64 0.00311 9.96 3.51e-4 3.59-0.00271 7.18 6.65e-4 10.8 0.00568 1.06-0.00223 2.12-0.00446 3.21-0.00676 0.954 0.00261 1.91 0.00522 2.89 0.0079 0.83 1.62e-4 1.66 3.25e-4 2.51 4.92e-4 1.88 0.125 1.88 0.125 2.88 1.13 0.0879 2.29 0.107 4.59 0.0977 6.88-0.00212 1.03-0.00212 1.03-0.00429 2.08-0.00561 2.2-0.0182 4.4-0.0309 6.6-0.00501 1.49-0.00958 2.98-0.0137 4.47-0.011 3.66-0.0283 7.31-0.0488 11-0.717 0.00809-1.43 0.0162-2.17 0.0245-6.8 0.0783-13.6 0.166-20.4 0.263-3.49 0.0497-6.99 0.096-10.5 0.134-4.03 0.0443-8.05 0.104-12.1 0.164-1.86 0.0173-1.86 0.0173-3.75 0.035-11.4 0.191-23 1.14-31.9 8.98-7.63 8.4-10.6 18.6-10.5 29.8 0.00419 0.771 0.00838 1.54 0.0127 2.34 0.216 11.4 1.88 22.7 6.12 33.3 1.62 4.1 3.03 8.26 4.43 12.4 0.27 0.782 0.541 1.56 0.82 2.37 0.25 0.743 0.501 1.49 0.759 2.25 0.226 0.663 0.452 1.33 0.685 2.01 0.487 1.93 0.487 1.93 0.487 5.93h-106c-1.17-4.1-2.21-7.76-2.94-11.9-0.95-4.88-2.37-9.45-4.06-14.1-0.322-0.9-0.645-1.8-0.977-2.73-0.997-2.76-2.01-5.52-3.02-8.27-0.246-0.678-0.492-1.36-0.746-2.05-2.9-7.89-5.82-15.8-10.3-22.9-0.498-0.9-0.995-1.8-1.51-2.73-3.67-6.57-7.74-12.3-12.7-18-1.82-2.28-1.82-2.28-2.82-5.28-1.81-1.07-1.81-1.07-4-2-0.749-0.463-1.5-0.926-2.27-1.4-12.9-7.77-27-8.05-41.6-8.22-2.31-0.0366-4.63-0.077-6.94-0.123-1.42-0.0271-2.85-0.0485-4.27-0.0635-4.8-0.0779-4.8-0.0779-5.91-1.19-0.254-4.64-0.185-9.29-0.188-13.9-0.0122-1.31-0.0245-2.63-0.0371-3.98-0.0029-1.88-0.0029-1.88-0.00586-3.79-0.00411-1.16-0.00822-2.31-0.0125-3.5 0.243-2.78 0.243-2.78 2.24-4.78 7.03-1.46 14.5-1.14 21.6-1.13z" fill="#FBFCFD"/>
<path transform="translate(1081 622)" d="m0 0c2.21-0.00136 4.41-0.00314 6.62-0.00531 5.95-0.00453 11.9-0.0028 17.8 3.79e-4 6.23 0.00254 12.5 1.81e-4 18.7-0.00139 11.1-0.00193 22.2 0.00116 33.4 0.00626 10.1 0.00448 20.2 0.00368 30.3-9.19e-4 11.7-0.00534 23.5-0.00735 35.2-0.00439 6.21 0.00156 12.4 0.00176 18.6-0.00154 5.82-0.00288 11.6-9.08e-4 17.5 0.00489 2.14 0.00133 4.28 9.33e-4 6.42-0.00126 2.91-0.00271 5.82 6.66e-4 8.73 0.00568 0.858-0.00223 1.72-0.00446 2.6-0.00676 5.81 0.0196 5.81 0.0196 6.92 1.13 0.0879 2.29 0.107 4.59 0.0977 6.88-0.00212 1.03-0.00212 1.03-0.00429 2.08-0.00561 2.2-0.0182 4.4-0.0309 6.6-0.00501 1.49-0.00958 2.98-0.0137 4.47-0.011 3.66-0.0283 7.31-0.0488 11-1.09 0.0198-2.18 0.0396-3.3 0.0601-4.09 0.0769-8.19 0.165-12.3 0.257-1.76 0.0379-3.52 0.0729-5.28 0.104-18.2 0.332-33.2 2.77-49.5 11.3-4.4 2.29-4.4 2.29-6.59 2.29-0.33 0.99-0.66 1.98-1 3-2 0.667-4 1.33-6 2-0.33 0.99-0.66 1.98-1 3-1.6 1.54-1.6 1.54-3.62 3.19-18.2 15.5-27.7 38.5-35 60.7-1.59 4.78-3.5 9.45-5.38 14.1-13.2 0.33-26.4 0.66-40 1-2.17-4.33-0.879-8.56 0.427-13 6-21.1 9.17-46.9-0.97-67.1-3.54-6.09-7.47-10.3-13.5-13.9-0.741-0.486-1.48-0.972-2.25-1.47-10.9-6.04-25-5.03-37.1-5.15-2.68-0.0366-5.36-0.077-8.03-0.123-1.65-0.0272-3.3-0.0485-4.95-0.0635-5.59-0.078-5.59-0.078-6.7-1.19-0.413-3.53-0.518-7.08-0.688-10.6-0.0599-0.986-0.12-1.97-0.182-2.99-0.273-5.61-0.131-10.1 1.87-15.4 5.66-5.66 30.6-2.14 38.2-2.13z" fill="#FBFCFD"/>
<path transform="translate(639 811)" d="m0 0c1.2-0.00191 2.39-0.00383 3.63-0.0058 2.53-0.00136 5.07 0.00232 7.6 0.0107 3.83 0.0106 7.65 1.46e-4 11.5-0.0127 36-0.0232 36-0.0232 46 7.27 1.36 0.866 1.36 0.866 2.75 1.75 6.14 6.14 7.98 12.5 8.32 21.1-0.182 8.14-2.06 13.9-7.76 19.9-5.31 5.05-11.6 9.05-19.1 9.32-0.726-0.0322-1.45-0.0645-2.2-0.0977l10 10c0.659 0.593 1.32 1.19 2 1.8 8.59 9.44 8.92 26.5 10.6 38.6 0.39 2.57 0.871 5.1 1.4 7.64 2.97 0.33 5.94 0.66 9 1 2.18-3.27 2.51-5.23 3.06-9.06 0.843-5.75 0.843-5.75 1.94-7.94 1.98 0.495 1.98 0.495 4 1 0.445 8.68 0.322 17-5.44 23.9-0.846 0.681-1.69 1.36-2.56 2.06-0.574 0.527-1.15 1.05-1.74 1.6-4.78 2.96-10.9 2.03-16.3 1.4-4.9-1.62-7.89-4.25-10.4-8.75-3.87-9.5-4.19-19.4-4.75-29.5-0.616-9.44-1.56-19.3-7.88-26.8-3.17-2.02-5.66-2.25-9.39-2.23-1.02 0.00193-2.04 0.00387-3.09 0.00586-1.06 0.0122-2.12 0.0245-3.21 0.0371-1.07 6.45e-4 -2.14 0.00129-3.24 0.00195-4.88-0.435-4.88-0.435-9.07 1.19-0.0989 1.74-0.128 3.49-0.129 5.24-0.00473 1.68-0.00473 1.68-0.00955 3.39 0.00202 1.22 0.00405 2.43 0.00613 3.69-9.57e-4 1.24-0.00191 2.48-0.0029 3.76-6.82e-4 2.63 6.76e-4 5.25 0.00534 7.88 0.0057 3.37 0.00242 6.75-0.00357 10.1-0.00447 3.21-0.00135 6.41 0.00113 9.62-0.00202 1.22-0.00405 2.43-0.00613 3.69 0.00315 1.12 0.0063 2.24 0.00955 3.39 7.96e-4 0.99 0.00159 1.98 0.00241 3-0.124 2.21-0.124 2.21 1.13 3.24 1.34 0.156 2.69 0.25 4.04 0.316 0.809 0.0419 1.62 0.0838 2.45 0.127 0.85 0.0393 1.7 0.0786 2.58 0.119 1.28 0.0648 1.28 0.0648 2.59 0.131 2.12 0.106 4.23 0.207 6.35 0.307 0.33 1.65 0.66 3.3 1 5-6.91 1.29-13.8 1.15-20.8 1.12-1.28-0.00193-2.57-0.00387-3.89-0.00586-9.79-0.0443-19.5-0.387-29.3-1.12 0-4 0-4 1-5 2.53-0.0731 5.03-0.0925 7.56-0.0625 0.711 0.00451 1.42 0.00902 2.15 0.0137 1.76 0.0118 3.52 0.0298 5.28 0.0488-0.107-15-0.22-30-0.339-44.9-0.0553-6.95-0.109-13.9-0.158-20.9-0.0474-6.7-0.0999-13.4-0.156-20.1-0.0205-2.56-0.0392-5.13-0.0561-7.69-0.024-3.58-0.054-7.16-0.0856-10.7-0.00863-1.61-0.00863-1.61-0.0174-3.25-0.00979-0.969-0.0196-1.94-0.0297-2.94-0.00645-0.847-0.0129-1.69-0.0196-2.57 0.0711-1.93 0.0711-1.93-1.14-2.92-2.35-0.235-4.71-0.414-7.06-0.562-1.94-0.126-1.94-0.126-3.91-0.254-1.5-0.0909-1.5-0.0909-3.03-0.184v-4c5.96-2.63 11.9-2.29 18.3-2.27z" fill="#FBFCFD"/>
<path transform="translate(565 819)" d="m0 0c6.3 6.59 9.56 13.1 11.8 21.9 0.371 1.22 0.742 2.43 1.12 3.69 1.72 6.52 2.04 12.9 2.08 19.6 0.0057 0.882 0.0114 1.76 0.0173 2.67 0.00941 1.86 0.016 3.73 0.0198 5.59 0.00962 2.79 0.0406 5.59 0.0723 8.38 0.214 36.2 0.214 36.2-11.3 48.1-7.6 7.1-13.3 8.6-23.6 8.35-4.83-0.488-8.33-1.82-12.4-4.35-1.05-0.584-1.05-0.584-2.11-1.18-8.86-5.64-12-15.8-14.3-25.5-1.54-9.31-1.73-18.6-1.73-28.1-0.00219-2.08-0.0204-4.15-0.0393-6.23-0.0771-18.1 2.22-36 14.1-50.2 11.1-9.13 23.9-10.8 36.4-2.62z" fill="#000002"/>
<path transform="translate(313 811)" d="m0 0c1.44-0.00287 1.44-0.00287 2.91-0.0058 2.02-0.00136 4.05 0.00231 6.07 0.0107 3.1 0.0107 6.2 8.6e-5 9.3-0.0127 1.97 0.00132 3.94 0.00388 5.91 0.00781 1.39-0.00607 1.39-0.00607 2.81-0.0123 1.3 0.00946 1.3 0.00946 2.62 0.0191 0.758 0.00159 1.52 0.00318 2.3 0.00482 2.4 0.287 4.03 1.06 6.12 2.25v4c-1.39 0.199-1.39 0.199-2.81 0.402-1.2 0.177-2.4 0.353-3.63 0.535-1.19 0.174-2.39 0.348-3.62 0.527-2.82 0.225-2.82 0.225-3.94 1.54-0.0808 8.47 2.39 16 5 24 0.813 2.64 1.6 5.29 2.38 7.94 0.309 1.05 0.309 1.05 0.624 2.11 2.06 7.04 3.97 14.1 5.86 21.2 1.34 5 2.84 9.91 4.51 14.8 0.957 2.95 1.48 5.94 2 9 0.746 2.32 1.87 3.29 3.62 4.95 0.166-0.65 0.332-1.3 0.503-1.97 0.766-2.99 1.54-5.98 2.31-8.97 0.392-1.53 0.392-1.53 0.791-3.1 1.37-5.28 2.85-10.5 4.62-15.6 1.6-4.88 2.91-9.85 4.27-14.8 0.593-2.14 1.19-4.29 1.78-6.43 0.285-1.03 0.571-2.07 0.865-3.13 0.802-2.81 1.67-5.6 2.55-8.39 1.12-3.71 1.68-7.01 1.61-10.9-0.00387-0.966-0.00773-1.93-0.0117-2.93-0.321-2.95-0.948-5.13-2.3-7.76-4.7-2.29-9.85-2.57-15-3-0.495-2.48-0.495-2.48-1-5 9.04-0.825 18-1.15 27.1-1.12 1.18-0.00387 2.35-0.00773 3.56-0.0117 7.51 0.0083 14.9 0.387 22.4 1.14 0.495 2.48 0.495 2.48 1 5-0.592 0.0374-1.18 0.0748-1.79 0.113-4.78 0.397-8.31 0.843-12.2 3.89-2.47 4.95-1.14 11 0.309 16.1 0.409 1.44 0.409 1.44 0.827 2.92 1.35 4.58 2.76 9.13 4.18 13.7 2.81 9.09 5.33 18.2 7.65 27.4 2.06 8.15 4.4 16.2 8.04 23.8 0.66 0.33 1.32 0.66 2 1 0.17-0.715 0.34-1.43 0.516-2.17 2.44-10 5.34-19.8 8.92-29.5 2.34-6.42 4.12-12.9 5.78-19.5 0.987-3.92 2.07-7.77 3.37-11.6 2.39-7.02 3.29-13.8 2.41-21.2-1.63-2.96-1.63-2.96-5-4-3.67-0.582-7.29-0.87-11-1v-4c5.27-2.15 9.89-2.29 15.5-2.27 0.897-0.00191 1.79-0.00383 2.72-0.0058 1.89-0.00136 3.77 0.0023 5.66 0.0107 2.89 0.0108 5.79 5.82e-5 8.68-0.0127 1.83 0.00132 3.67 0.00388 5.5 0.00781 0.868-0.00405 1.74-0.0081 2.63-0.0123 6.09 0.0479 6.09 0.0479 8.32 2.28v4c-0.629 0.0142-1.26 0.0284-1.91 0.043-6.38 0.355-11.4 1.39-16.1 5.96-1.79 2.86-2.88 5.83-4 9-0.313 0.717-0.626 1.43-0.949 2.17-2.71 6.2-4.48 12.6-6.21 19.1-1.21 4.53-2.56 8.97-4.07 13.4-1.32 3.91-2.54 7.85-3.77 11.8-1.45 4.62-2.9 9.23-4.44 13.8-1.91 5.71-3.73 11.4-5.56 17.2-2.29 7.18-4.6 14.4-7 21.5-0.385 1.16-0.771 2.31-1.17 3.5-0.944 2.83-1.89 5.66-2.83 8.5-2.87-0.246-2.87-0.246-6-1-1.32-1.72-1.32-1.72-2.12-4.06-0.309-0.893-0.619-1.79-0.938-2.71-1.49-5.13-2.79-10.3-4.01-15.5-0.827-3.32-1.82-6.5-2.93-9.73-0.493-1.77-0.972-3.54-1.44-5.31-1.13-4.21-2.41-8.33-3.82-12.5-3.55-10.6-6.47-21.4-9.37-32.2-1-3.71-2.1-7.37-3.38-11-3.12 3.49-4.17 7.31-5.34 11.7-0.312 1.14-0.312 1.14-0.631 2.3-0.664 2.42-1.32 4.85-1.97 7.28-0.433 1.59-0.868 3.18-1.3 4.77-1.64 6-3.26 12-4.84 18-1.98 7.52-4.1 15-6.42 22.4-2.71 8.79-5.23 17.6-7.5 26.5-1.65 0.33-3.3 0.66-5 1-2.48-3.8-3.93-7.42-5.25-11.8-0.207-0.677-0.414-1.35-0.627-2.05-2.61-8.66-5-17.4-7.42-26.1-1.47-5.28-2.97-10.5-4.52-15.8-0.195-0.664-0.389-1.33-0.59-2.01-0.829-2.8-1.69-5.58-2.62-8.36-3.12-9.38-5.56-19-8.05-28.6-0.873-3.17-1.88-6.26-2.93-9.38-0.295-1.04-0.59-2.08-0.895-3.15-0.945-3.32-1.99-6.58-3.11-9.85-0.278-0.853-0.557-1.71-0.844-2.59-1.14-2.55-1.86-3.79-4.16-5.41-5.04-0.97-9.88-1.1-15-1v-4c4.87-2.55 9.61-2.29 15-2.27z" fill="#FBFCFD"/>
<path transform="translate(785 811)" d="m0 0c1.13-0.013 2.25-0.0259 3.42-0.0393 1.06-0.00121 2.12-0.00242 3.21-0.00366 0.941-0.00411 1.88-0.00822 2.85-0.0125 2.63 0.253 4.27 0.905 6.52 2.24v4c-7.92 0.495-7.92 0.495-16 1-0.33 18.8-0.66 37.6-1 57 5.16-2.58 7.28-3.99 11-8 5-5 5-5 7.25-7.19 2.48-2.54 4.83-5.15 7.19-7.81 2.52-2.83 4.96-5.47 7.94-7.81 2.7-2.25 3.89-4.18 5.62-7.19 1.33-1.08 1.33-1.08 2.69-2.19 3-3.65 2.77-5.93 2.59-10.5-0.213-2.46-0.213-2.46-1.27-5.3-2.56-1.03-2.56-1.03-5.56-1.69-1.01-0.251-2.02-0.503-3.07-0.762-0.782-0.182-1.56-0.364-2.37-0.551 0.752-1.95 0.752-1.95 2-4 8.23-2.98 20-0.861 28.6-0.562 1.69 0.0533 3.38 0.106 5.07 0.158 4.1 0.128 8.21 0.264 12.3 0.404 0.562 1.94 0.562 1.94 1 4-1.6 1.6-3.56 1.51-5.75 1.88-4.01 0.755-6.86 1.79-10.2 4.12h-2c-0.264 0.603-0.529 1.21-0.801 1.83-1.26 2.28-2.35 3.34-4.39 4.92-3.46 2.84-6.29 5.97-9.19 9.37-2.09 2.42-4.33 4.65-6.62 6.88l-5 5c-0.846 0.887-1.69 1.77-2.56 2.69-2.13 2.02-3.75 3.22-6.44 4.31 1.11 7.27 4.96 13.9 9 20 2.57 3.86 4.51 7.93 6.54 12.1 1.37 2.72 2.88 5.3 4.46 7.9 0.821 1.5 1.63 3 2.44 4.5 0.826 1.51 1.65 3.02 2.48 4.52 0.815 1.49 1.63 2.98 2.43 4.47 1.53 2.82 3.09 5.63 4.65 8.44 0.498 0.924 0.996 1.85 1.51 2.8 2.83 5.06 5.08 8.67 10.5 11.3 2.72 0.677 2.72 0.677 5.38 0.75 1.31 0.0851 1.31 0.0851 2.65 0.172 0.652 0.0258 1.3 0.0516 1.98 0.0781 0.33 1.65 0.66 3.3 1 5-4.55 0.146-9.1 0.288-13.6 0.427-1.54 0.0476-3.08 0.0961-4.62 0.146-5.24 0.168-10.5 0.311-15.7 0.427-1.12 0.0266-1.12 0.0266-2.27 0.0537-2.18 0.0464-4.36 0.0771-6.54 0.103-1.26 0.0187-2.53 0.0374-3.83 0.0566-3.25-0.206-5.44-0.808-8.36-2.21 0.586-1.95 0.586-1.95 2-4 3.04-0.609 3.04-0.609 6.62-0.75 1.19-0.0567 2.38-0.113 3.6-0.172 0.915-0.0258 1.83-0.0516 2.77-0.0781 0.658-7.24-1.27-10.9-5-17-1.08-1.95-2.14-3.91-3.19-5.88-0.589-1.1-1.18-2.19-1.79-3.32-11.7-21.9-11.7-21.9-17-32.8-3.94 1.45-6.08 2.98-9 6h-2c-0.289 0.619-0.577 1.24-0.875 1.88-1.12 2.12-1.12 2.12-3.12 4.12-0.298 2.05-0.298 2.05-0.243 4.43-0.00308 0.918-0.00615 1.84-0.00932 2.78 0.00719 0.993 0.0144 1.99 0.0218 3.01 4.58e-4 1.02 9.16e-4 2.03 0.00139 3.08 0.00302 2.15 0.0109 4.3 0.0233 6.45 0.0183 3.3 0.0205 6.61 0.0203 9.91 0.00492 2.08 0.0107 4.17 0.0176 6.25 0.00111 0.995 0.00223 1.99 0.00337 3.01 0.00638 0.914 0.0128 1.83 0.0193 2.77 0.00381 0.809 0.00762 1.62 0.0116 2.45-0.0683 1.87-0.0683 1.87 1.13 2.85 2.35 0.235 4.71 0.414 7.06 0.562 1.94 0.126 1.94 0.126 3.91 0.254 0.999 0.0606 2 0.121 3.03 0.184 0.33 1.65 0.66 3.3 1 5-17 1.07-34 1.71-51 0 0-4 0-4 1-5 4.95-0.33 9.9-0.66 15-1v-114c-3.32-1.11-6.2-1.32-9.69-1.56-1.77-0.126-1.77-0.126-3.57-0.254-0.904-0.0606-1.81-0.121-2.74-0.184 0-4 0-4 1-5 2.82-0.251 5.61-0.432 8.44-0.562 0.871-0.041 1.74-0.082 2.64-0.124 7.64-0.322 15.3-0.453 22.9-0.501z" fill="#FBFCFD"/>
<path transform="translate(904 811)" d="m0 0c1.28-0.0245 2.57-0.049 3.89-0.0742 1.85-0.0058 1.85-0.0058 3.73-0.0117 1.13-0.00822 2.25-0.0164 3.41-0.0249 3.61 0.593 4.7 1.67 6.96 4.49 1.17 1.68 2.3 3.39 3.38 5.12 0.606 0.972 1.21 1.94 1.84 2.95 2.11 3.46 4.2 6.94 6.28 10.4 1.53 2.53 3.1 5.02 4.7 7.5 3.67 5.74 7.21 11.6 10.8 17.4 2.56 4.2 5.15 8.37 7.81 12.5 2.36 3.67 4.58 7.4 6.75 11.2 2.75 4.76 5.72 9.28 8.93 13.7 1.33 1.87 2.59 3.76 3.82 5.7 1.67 2.71 1.67 2.71 4.75 4.5 0.0697-9.75 0.123-19.5 0.155-29.3 0.0156-4.53 0.0368-9.06 0.0709-13.6 0.0327-4.38 0.0506-8.75 0.0583-13.1 0.00552-1.66 0.0163-3.33 0.0326-4.99 0.217-12.3 0.217-12.3-3.32-24-0.99-0.66-1.98-1.32-3-2v-2h-10c0-4 0-4 1-5 2.96-0.246 5.91-0.429 8.88-0.562 1.33-0.0615 1.33-0.0615 2.69-0.124 6.35-0.271 12.7-0.446 19.1-0.501 0.811-0.013 1.62-0.0259 2.46-0.0393 1.97-0.00318 3.95 0.102 5.92 0.227 2 2 2 2 2 6-0.664 0.0864-1.33 0.173-2.01 0.262-4.37 0.696-7.36 1.28-11 3.93-4.56 6.41-4.3 13.3-4.32 20.9-0.01 1.09-0.0201 2.19-0.0304 3.31-0.0308 3.6-0.0479 7.2-0.0648 10.8-0.0187 2.5-0.0383 5-0.0587 7.5-0.046 5.9-0.0835 11.8-0.117 17.7-0.0421 7.38-0.0976 14.8-0.153 22.1-0.0967 13.2-0.182 26.3-0.258 39.5-5.7 0.234-5.7 0.234-8.44-1.88-5.88-6.7-10.4-14.4-14.8-22.1-2.77-4.76-5.77-9.38-8.75-14-1.17-1.83-2.33-3.67-3.5-5.5-0.577-0.908-1.15-1.82-1.75-2.75-12.2-19.2-12.2-19.2-14-22-1.13-1.77-2.25-3.54-3.38-5.3-3.06-4.8-6.1-9.61-9.11-14.4-4.8-7.71-4.8-7.71-9.69-15.4-0.432-0.668-0.864-1.34-1.31-2.02-1.34-1.89-1.34-1.89-4.25-3.6 0.0613 11.5 0.138 23 0.236 34.4 0.0447 5.33 0.0839 10.7 0.111 16 0.0261 5.15 0.0665 10.3 0.117 15.4 0.0167 1.96 0.0282 3.92 0.0344 5.89 0.00966 2.75 0.0377 5.51 0.07 8.26-0.00215 1.21-0.00215 1.21-0.00435 2.45 0.0861 5.21 0.952 8.91 3.44 13.5 3.24 2.14 5.97 2.99 9.75 3.88 1.07 0.371 2.14 0.743 3.25 1.12 1.2 2.57 1.2 2.57 2 5-5.64 0.0494-11.3 0.0857-16.9 0.11-1.92 0.0101-3.84 0.0237-5.76 0.041-2.76 0.0242-5.52 0.0356-8.27 0.0444-0.859 0.0103-1.72 0.0206-2.6 0.0313-1.2 2.27e-4 -1.2 2.27e-4 -2.43 4.58e-4 -0.704 0.00444-1.41 0.00888-2.13 0.0135-1.88-0.241-1.88-0.241-4.88-2.24 0.33-1.32 0.66-2.64 1-4 1.26-0.164 1.26-0.164 2.55-0.332 1.1-0.159 2.19-0.317 3.32-0.48 1.09-0.151 2.18-0.302 3.3-0.457 3.13-0.477 3.13-0.477 4.82-3.73 0.369-2.84 0.369-2.84 0.41-6.11 0.0381-1.27 0.0762-2.55 0.116-3.86 0.0313-1.41 0.0619-2.82 0.092-4.23 0.0377-1.47 0.0756-2.95 0.114-4.42 0.397-16.4 0.422-32.8 0.399-49.2-0.00584-4.31-0.00231-8.63 0.00357-12.9 0.0036-3.37 0.00247-6.73-1.28e-4 -10.1-6.64e-4 -1.59 1.41e-4 -3.19 0.00248-4.78 0.00253-2.2-0.00131-4.39-0.0069-6.59-7.96e-4 -1.24-0.00159-2.49-0.00241-3.77 0.0104-3.07 0.0104-3.07-1.13-6.02h-14c-0.33-1.32-0.66-2.64-1-4 5.42-3.31 11.9-2.37 18-2.38z" fill="#FBFCFD"/>
<path transform="translate(1032 811)" d="m0 0c1.22-0.00412 1.22-0.00412 2.46-0.00833 0.887 0.00719 1.77 0.0144 2.69 0.0218 1.41-4.38e-4 1.41-4.38e-4 2.84-8.85e-4 3.1 0.00139 6.2 0.017 9.3 0.0326 2.15 0.00373 4.3 0.00658 6.44 0.00858 5.66 0.00764 11.3 0.0273 17 0.0494 5.77 0.0204 11.5 0.0296 17.3 0.0397 11.3 0.0215 22.7 0.0556 34 0.0977 1.67 3.33 1.12 7.07 1.1 10.7-0.00141 0.863-0.00283 1.73-0.00429 2.61-0.00561 2.76-0.0182 5.52-0.0309 8.28-0.00501 1.87-0.00958 3.74-0.0137 5.61-0.011 4.59-0.0283 9.18-0.0488 13.8-1.98-0.495-1.98-0.495-4-1-0.17-0.75-0.34-1.5-0.516-2.27-2.33-9.82-4.66-18.1-11.5-25.7v-2c-8.51-3.57-16.9-3.43-26-3.34-2.49 0.0239-4.97 0.0205-7.46 0.0139-1.59 0.00557-3.17 0.0127-4.76 0.0215-0.741-9.11e-4 -1.48-0.00182-2.24-0.00276-3.73 0.0516-5.39 0.182-8.57 2.3-0.476 2.21-0.476 2.21-0.432 4.82-0.0198 1-0.0396 2-0.06 3.03-0.00958 1.63-0.00958 1.63-0.0194 3.28-0.018 1.11-0.0359 2.21-0.0544 3.35-0.0543 3.55-0.0881 7.09-0.121 10.6-0.0332 2.4-0.0676 4.8-0.104 7.2-0.0851 5.89-0.153 11.8-0.209 17.7 3.58 0.0872 7.17 0.14 10.7 0.188 1.52 0.0377 1.52 0.0377 3.08 0.0762 1.47 0.0145 1.47 0.0145 2.97 0.0293 1.35 0.0236 1.35 0.0236 2.73 0.0476 2.96-0.408 4.29-1.33 6.47-3.34 2.61-5.02 3.37-10.6 3.69-16.2 0.309-1.85 0.309-1.85 2.31-3.85l4 1c-0.33 18.1-0.66 36.3-1 55-1.98-0.495-1.98-0.495-4-1-0.254-1.18-0.508-2.36-0.77-3.58-0.347-1.56-0.695-3.11-1.04-4.67-0.166-0.777-0.331-1.55-0.502-2.36-0.946-4.18-1.83-7.09-4.69-10.4v-2c-3.65-0.0289-7.29-0.0468-10.9-0.0625-1.04-0.00838-2.08-0.0168-3.15-0.0254-0.989-0.00322-1.98-0.00645-3-0.00977-0.916-0.00524-1.83-0.0105-2.78-0.0159-2.12-0.126-2.12-0.126-3.13 1.11-0.0986 1.62-0.128 3.25-0.129 4.87-0.00473 1.56-0.00473 1.56-0.00955 3.14 0.00202 1.13 0.00405 2.26 0.00613 3.42-9.57e-4 1.15-0.00191 2.3-0.0029 3.49-6.82e-4 2.44 0.00117 4.88 0.00534 7.31 0.00535 3.75 5.57e-5 7.49-0.00635 11.2 6.61e-4 2.36 0.00194 4.72 0.00391 7.09-0.00202 1.13-0.00405 2.26-0.00613 3.42 0.00315 1.04 0.0063 2.08 0.00955 3.14 7.96e-4 0.919 0.00159 1.84 0.00241 2.78-0.105 2.08-0.105 2.08 1.13 3.09 2.67 0.114 5.31 0.164 7.98 0.168 0.806 0.00333 1.61 0.00666 2.44 0.0101 1.71 0.00507 3.42 0.00741 5.13 0.00725 2.61 0.00217 5.21 0.0203 7.82 0.0393 1.66 0.00294 3.32 0.00492 4.99 0.00586 0.775 0.00719 1.55 0.0144 2.35 0.0218 7.66-0.032 14.5-2.16 20.3-7.25 5.15-6.91 6.68-15.8 8.54-24 0.769-3.35 1.62-6.67 2.46-10 1.98 0.495 1.98 0.495 4 1 0.134 8.62-0.0732 17.2-0.438 25.8-0.0392 0.966-0.0785 1.93-0.119 2.93-0.259 5.79-0.74 11.5-1.44 17.3-17.6 0.901-35.2 1.11-52.8 1.12-1.54 0.00375-1.54 0.00375-3.1 0.00757-14.7 0.0294-29.4-0.368-44.1-1.13 0-4 0-4 1-5 2.53-0.237 5.03-0.422 7.56-0.562 1.07-0.0648 1.07-0.0648 2.15-0.131 1.76-0.106 3.52-0.207 5.28-0.307 0.0233-14.7 0.041-29.4 0.0518-44 0.00516-6.82 0.0122-13.6 0.0236-20.5 0.011-6.57 0.0168-13.1 0.0194-19.7 0.00185-2.51 0.00547-5.02 0.0109-7.54 0.00723-3.51 0.00826-7.02 0.0078-10.5 0.0036-1.05 0.00719-2.09 0.0109-3.17-0.00137-0.955-0.00275-1.91-0.00417-2.89 9.22e-4 -0.831 0.00184-1.66 0.00279-2.52-0.0407-2.32-0.0407-2.32-1.12-5.13h-15v-4c3.04-2.03 3.6-2.25 7.01-2.24z" fill="#FBFCFD"/>
<path transform="translate(573 816)" d="m0 0c1.27 1.04 2.52 2.1 3.75 3.19 0.874 0.735 0.874 0.735 1.77 1.48 7.92 7.21 12.9 16.8 16.6 26.7 0.358 0.943 0.358 0.943 0.723 1.9 3.16 8.85 4.25 17.5 4.15 26.8-0.0112 1.46-0.0112 1.46-0.0227 2.94-0.228 15.1-4.05 29.3-12.2 42.1-0.378 0.612-0.755 1.22-1.14 1.86-4.73 7.17-11.3 12.3-18.9 16.1-0.975 0.519-1.95 1.04-2.95 1.57-8.93 3.76-23.9 3.39-33 0.359-2.95-1.42-5.43-2.97-8.05-4.93-0.861-0.58-1.72-1.16-2.61-1.76-11.4-8.25-17.5-19.4-22.4-32.2-0.36-0.851-0.719-1.7-1.09-2.58-4.68-12.5-4.08-27.7-0.91-40.4 0.098-0.674 0.196-1.35 0.297-2.04 1.31-8.28 5.77-15.7 9.7-23 0.345-0.646 0.69-1.29 1.05-1.96 2.42-4.41 4.98-6.96 8.95-10 0.742-0.804 1.49-1.61 2.25-2.44 14.7-13.7 37.5-15.6 54-3.75zm-46 7.28c-4.41 5.92-7.11 11.9-9.21 18.9-0.214 0.7-0.428 1.4-0.648 2.12-2.84 10.2-2.56 20.9-2.54 31.4 9.37e-4 0.71 0.00187 1.42 0.00284 2.15-0.292 26.8-0.292 26.8 11.2 50.3 8.52 6.92 15.4 9.57 26.5 9.37 7.23-0.757 12.4-3.86 17.4-9.06 10.8-13.7 10.6-33.3 10.5-49.8-0.0238-2.75-0.0205-5.5-0.0139-8.25-0.0297-18.5-1.47-37.4-15.3-51.2-12-7.62-28.1-7.25-37.8 4.09z" fill="#FBFCFD"/>
<path transform="translate(1217 819)" d="m0 0c2.7 1.67 4.64 2.33 7.76 2.71 0.0258-0.626 0.0516-1.25 0.0781-1.9 0.0851-1.23 0.0851-1.23 0.172-2.48 0.0464-0.812 0.0928-1.62 0.141-2.46 0.609-2.16 0.609-2.16 2.66-3.45 0.645-0.235 1.29-0.469 1.95-0.711 1.18 2.35 1.19 3.92 1.3 6.54 0.0599 1.41 0.0599 1.41 0.121 2.85 0.0386 1.02 0.0772 2.04 0.117 3.08 0.0645 1.56 0.0645 1.56 0.13 3.15 0.137 3.33 0.267 6.66 0.397 10 0.0914 2.26 0.183 4.51 0.275 6.77 0.225 5.54 0.446 11.1 0.662 16.6-4.54-3.61-6.71-5.62-8.56-11.3-1.93-5.46-4.08-9.99-7.44-14.7-0.451-0.665-0.902-1.33-1.37-2.02-5.81-8.23-12.3-13.9-22.1-16.7-7.73-0.943-11.7-0.392-18.3 3.9-3.3 2.6-5.13 5.17-7.27 8.79-0.362 0.577-0.724 1.15-1.1 1.75-2.14 5.33-1.47 11.6-0.902 17.2 6.35 12.5 29 17.3 41.3 21.9 13.3 5.1 24.3 11 30.6 24.4 2.93 10 3.11 23.5-1.7 33-1.81 2.73-3.65 4.72-6.19 6.8-0.588 0.503-1.18 1.01-1.78 1.52-9.84 8-21.5 9.11-33.9 8.35-9.11-1.33-16.9-6.69-24.3-11.9-2.69-1.9-2.69-1.9-5-3-1.48 0.495-1.48 0.495-3 1-0.922 2.73-0.922 2.73-1.5 5.94-1.17 5.84-1.17 5.84-4.5 8.06-2.11-4.35-2.44-8.5-2.62-13.2-0.0379-0.832-0.0759-1.66-0.115-2.52-0.548-14.1-0.342-28.2-0.26-42.2 1.65 0.33 3.3 0.66 5 1 0.208 1.08 0.415 2.15 0.629 3.26 2.06 9.99 4.86 18 10.4 26.7 0.692 1.14 0.692 1.14 1.4 2.3 5.62 8.38 15.1 15 25 17.3 8.5 1.45 17 0.95 24.4-3.65 3.67-2.79 5.49-5.69 7.21-9.9 0.435-3.65 0.435-3.65 0.312-7.44-0.00387-1.26-0.00773-2.51-0.0117-3.81-0.313-3.91-1.1-7.04-2.3-10.8h-2c-0.557-0.577-1.11-1.15-1.69-1.75-5.17-5.03-12.1-7.55-18.6-10.2-0.847-0.353-1.69-0.706-2.57-1.07-4.08-1.7-8.18-3.35-12.3-4.93-4.48-1.77-8.8-3.87-13.1-6-0.683-0.333-1.37-0.665-2.07-1.01-8.99-4.5-15-10.8-18.5-20.4-2.11-8.56-1.87-18.2 0.891-26.6 5.3-8.75 12.9-16.3 23-19 15.1-3.39 27.2 1.62 39.2 10.3z" fill="#FBFCFD"/>
<path transform="translate(1277 811)" d="m0 0c0.965-0.00204 1.93-0.00409 2.92-0.0062 3.19-0.00301 6.37 0.0155 9.56 0.0345 2.21 0.00306 4.42 0.00493 6.63 0.00568 4.63 0.0046 9.27 0.019 13.9 0.0412 5.95 0.0283 11.9 0.0392 17.9 0.0437 4.56 0.00415 9.13 0.014 13.7 0.0259 2.2 0.00571 4.39 0.0105 6.59 0.0143 3.06 0.00684 6.12 0.0205 9.18 0.0363 0.916 0.00112 1.83 0.00224 2.78 0.00339 6.25 0.0431 6.25 0.0431 7.36 1.16 1.51 9.97 1.12 20.2 1.06 30.2-0.00503 1.63-0.00959 3.26-0.0137 4.89-0.0109 3.95-0.0281 7.9-0.0488 11.9l-4-1c-0.182-0.822-0.364-1.64-0.551-2.49-3.23-16.9-3.23-16.9-12.1-31.1-1.34-1.37-1.34-1.37-1.34-3.37-6.82-2.89-13.6-4.09-21-3-2.21 1.17-2.21 1.17-4 3-0.59 2.14-0.59 2.14-0.488 4.57-0.00694 0.937-0.0139 1.87-0.021 2.84 0.0128 1.03 0.0256 2.05 0.0388 3.11-0.00219 1.08-0.00438 2.16-0.00664 3.28-0.00232 3.58 0.024 7.16 0.0508 10.7 0.00492 2.48 0.00822 4.96 0.00996 7.45 0.00863 5.87 0.0358 11.7 0.0712 17.6 0.035 6.02 0.0465 12 0.0552 18.1 0.00995 6.36 0.0299 12.7 0.0511 19.1 0.0034 1.22 0.00679 2.44 0.0103 3.7 0.0115 3.44 0.03 6.88 0.051 10.3 0.00269 1.03 0.00538 2.06 0.00815 3.12 0.00716 0.931 0.0143 1.86 0.0217 2.82 0.00427 0.814 0.00855 1.63 0.0129 2.47-0.0671 1.86-0.0671 1.86 1.13 2.85 1.41 0.156 2.83 0.251 4.25 0.316 0.854 0.0419 1.71 0.0838 2.59 0.127 0.898 0.0393 1.8 0.0786 2.72 0.119 0.902 0.0432 1.8 0.0864 2.73 0.131 2.23 0.106 4.47 0.208 6.71 0.307 0.33 1.65 0.66 3.3 1 5-19.9 2.17-40.1 1.06-60 0 0-4 0-4 1-5 1.41-0.156 2.83-0.251 4.25-0.316 0.854-0.0419 1.71-0.0838 2.59-0.127 0.898-0.0393 1.8-0.0786 2.72-0.119 0.902-0.0432 1.8-0.0864 2.73-0.131 2.23-0.106 4.47-0.208 6.71-0.307 0.0467-14.7 0.082-29.4 0.104-44.1 0.0103-6.82 0.0244-13.6 0.0473-20.5 0.022-6.58 0.0337-13.2 0.0389-19.7 0.00371-2.52 0.0109-5.03 0.0217-7.55 0.0144-3.51 0.0165-7.03 0.0156-10.5 0.00719-1.05 0.0144-2.1 0.0218-3.18-0.00275-0.954-0.0055-1.91-0.00833-2.89 0.00277-1.25 0.00277-1.25 0.00559-2.52-0.0646-2.24-0.0646-2.24-2.25-4.01-8.08-0.985-14.1-0.184-21 4h-2c-0.227 0.516-0.454 1.03-0.688 1.56-1.31 2.44-1.31 2.44-3.69 5.56-6.39 8.93-7.89 19.3-9.62 29.9-1.65-0.33-3.3-0.66-5-1-0.124-10.6-0.0151-21.3 0.25-31.9 0.0141-1.14 0.0282-2.29 0.0427-3.46 0.0323-1.07 0.0646-2.15 0.0979-3.25 0.0209-0.959 0.0419-1.92 0.0635-2.91 0.546-2.44 0.546-2.44 1.98-4.07 3.94-2.11 7.69-1.77 12.1-1.73z" fill="#FBFCFD"/>
<path transform="translate(670 817)" d="m0 0c1.17-0.0058 1.17-0.0058 2.36-0.0117 14.9 0.0251 14.9 0.0251 20.8 5.14 6.16 8.63 6.63 16.6 6 27-1.32 7.29-4.35 11.1-10.1 15.7-7.41 3.38-15.4 3.5-23.4 3.56-1.18 0.0139-1.18 0.0139-2.39 0.0281-3.88-0.0214-5.81-0.0775-9.11-2.28-0.374-1.97-0.374-1.97-0.372-4.42-0.00623-0.914-0.0125-1.83-0.0189-2.77 0.00921-0.99 0.0184-1.98 0.0279-3-4.99e-4 -1.01-9.97e-4 -2.03-0.00151-3.07 0.00234-2.15 0.0121-4.29 0.0286-6.44 0.0236-3.29 0.0206-6.58 0.0139-9.88 0.00558-2.08 0.0127-4.16 0.0215-6.24-9.11e-4 -0.99-0.00182-1.98-0.00276-3 0.00953-0.914 0.0191-1.83 0.0289-2.77 0.00461-0.807 0.00921-1.61 0.014-2.44 0.261-1.97 0.261-1.97 2.26-3.97 4.53-1.35 9.19-1.15 13.9-1.12z" fill="#000002"/>
</svg>
