<?xml version="1.0" encoding="UTF-8"?>
<svg version="1.1" viewBox="0 0 1600 1600" width="1280" height="1280" xmlns="http://www.w3.org/2000/svg">
<path transform="translate(0)" d="m0 0h1600v1600h-1600v-1600z" fill="transparent"/>
<path transform="translate(543 1013)" d="m0 0c0.931 0.0036 1.86 0.00719 2.82 0.0109 0.976-1.46e-4 1.95-2.92e-4 2.96-4.43e-4 3.24 7e-4 6.48 0.00849 9.72 0.0163 2.24 0.00186 4.48 0.00329 6.72 0.00429 5.91 0.00383 11.8 0.0137 17.7 0.0247 6.03 0.0102 12.1 0.0148 18.1 0.0198 11.8 0.0107 23.7 0.0278 35.5 0.0488 10.7 24.5 10.7 24.5 15.1 35.2 0.826 1.99 1.65 3.99 2.48 5.98 0.399 0.962 0.798 1.92 1.21 2.92 2.17 5.21 4.37 10.4 6.59 15.6 5.6 13.2 5.6 13.2 5.6 17.2 1.32 0.33 2.64 0.66 4 1 0.316-1 0.633-2.01 0.959-3.04 1.49-4.74 2.99-9.47 4.48-14.2 0.271-0.858 0.541-1.72 0.82-2.6 3.92-12.4 7.87-24.8 11.9-37.2 0.503-1.56 0.503-1.56 1.02-3.14 0.313-0.969 0.627-1.94 0.95-2.94 1.13-3.61 2.17-7.24 3.18-10.9 0.713-1.95 0.713-1.95 2.71-3.95 2.5-0.187 4.88-0.256 7.38-0.23 1.09 6.87e-4 1.09 6.87e-4 2.2 0.00139 1.54 0.00302 3.07 0.0109 4.61 0.0233 2.36 0.0183 4.72 0.0205 7.08 0.0203 1.49 0.00491 2.98 0.0107 4.47 0.0176 0.71 0.00111 1.42 0.00223 2.15 0.00337 4.98 0.0485 4.98 0.0485 6.09 1.16-0.406 7.27-2.26 13.6-4.56 20.5-0.736 2.25-1.47 4.49-2.21 6.74-0.375 1.13-0.749 2.27-1.14 3.44-1.64 4.99-3.25 10-4.85 15-0.479 1.49-0.479 1.49-0.967 3.02-3.39 10.6-6.73 21.2-10.1 31.8-3.02 9.59-6.06 19.2-9.15 28.7-2.43 7.54-4.79 15.1-7.12 22.7-0.273 0.887-0.546 1.77-0.827 2.69-0.564 1.83-1.13 3.66-1.69 5.49-0.282 0.917-0.565 1.83-0.856 2.78-0.282 0.915-0.563 1.83-0.854 2.77-3.72 12.1-7.55 24.1-11.6 36-2.92 8.66-5.62 17.4-8.29 26.1-2.01 6.59-4.08 13.2-6.26 19.7-0.247 0.742-0.494 1.48-0.749 2.25-1.68 4.98-1.68 4.98-2.81 7.25-3.75 0.116-7.5 0.187-11.2 0.25-1.06 0.0335-2.13 0.067-3.22 0.102-1.02 0.0129-2.05 0.0258-3.11 0.0391-0.943 0.0209-1.89 0.0419-2.86 0.0635-3.41-0.603-4.45-1.75-6.57-4.45-1.31-2.61-1.31-2.61-2.44-5.54-0.42-1.07-0.84-2.15-1.27-3.26-0.425-1.12-0.851-2.24-1.29-3.39-0.853-2.2-1.71-4.4-2.56-6.61-0.417-1.07-0.834-2.15-1.26-3.25-1.25-3.15-2.6-6.23-4-9.31-2.98-6.71-5.77-13.5-8.61-20.3-0.716-1.7-1.43-3.4-2.15-5.11-1.8-4.29-3.6-8.57-5.4-12.9-0.945-2.25-1.89-4.5-2.84-6.75-8.61-20.5-17.1-41-25.6-61.6-1.08-2.62-2.16-5.23-3.24-7.85-0.75-1.82-1.5-3.64-2.24-5.46-2.13-5.15-4.29-10.3-6.63-15.3-1.73-3.77-3.3-7.56-4.77-11.4-3.38-8.95-7.16-17.7-10.9-26.5-1.09-2.57-2.17-5.14-3.26-7.72-0.67-1.59-1.34-3.17-2.01-4.76-0.85-2.01-1.69-4.02-2.54-6.03-0.399-0.94-0.797-1.88-1.21-2.85-0.927-2.52-1.01-4.49-0.792-7.15 1.94-1.94 4.89-1.12 7.47-1.12z"/>
<path transform="translate(878 1013)" d="m0 0c1.33 0.00372 1.33 0.00372 2.68 0.00751 0.93-0.00511 1.86-0.0102 2.82-0.0155 3.09-0.0139 6.17-0.0129 9.26-0.0106 2.14-0.00388 4.28-0.00822 6.42-0.013 4.49-0.00747 8.98-0.00716 13.5-0.00191 5.76 0.00579 11.5-0.0111 17.3-0.0343 4.42-0.0147 8.84-0.0156 13.3-0.0125 2.12-5.14e-4 4.25-0.00577 6.37-0.0158 2.97-0.0123 5.94-0.0056 8.91 0.00601 0.88-0.00764 1.76-0.0153 2.67-0.0232 5.91 0.0512 5.91 0.0512 9.05 1.7 2.5 2.79 3.42 6.2 4.54 9.71 0.269 0.799 0.537 1.6 0.814 2.42 0.858 2.56 1.7 5.13 2.54 7.7 0.556 1.67 1.11 3.35 1.67 5.02 0.833 2.5 1.66 4.99 2.49 7.49 3.93 11.8 8.07 23.6 12.6 35.2 1.1 2.87 1.84 5.02 1.84 8.12h2l1 2c2.28-6.48 4.55-13 6.81-19.4 0.338-0.966 0.676-1.93 1.02-2.93 3.58-10.2 7.14-20.5 10.5-30.8 0.254-0.77 0.508-1.54 0.77-2.33 1.19-3.6 2.36-7.2 3.53-10.8 0.417-1.28 0.835-2.55 1.25-3.83 0.532-1.65 0.532-1.65 1.08-3.33 0.999-2.57 0.999-2.57 3-4.57 2.57-0.187 5.03-0.256 7.6-0.23 1.12 6.87e-4 1.12 6.87e-4 2.27 0.00139 1.58 0.00302 3.17 0.0109 4.75 0.0233 2.43 0.0183 4.87 0.0205 7.3 0.0203 1.54 0.00491 3.07 0.0107 4.61 0.0176 0.732 0.00111 1.46 0.00223 2.22 0.00337 5.13 0.0485 5.13 0.0485 6.25 1.16-0.404 6.93-2.52 13-4.88 19.4-0.706 1.98-1.41 3.96-2.12 5.93-0.345 0.961-0.69 1.92-1.05 2.91-0.832 2.35-1.63 4.71-2.4 7.08-1.83 5.54-3.88 11-5.91 16.5-4.52 12.2-8.86 24.5-13.1 36.8-2.86 8.36-5.84 16.7-8.88 25-2.28 6.23-4.42 12.5-6.49 18.8-3.34 10.1-6.96 20-10.6 29.9-3.34 9.02-6.53 18.1-9.69 27.2-1.74 5-3.49 9.99-5.24 15-1.53 4.36-3.05 8.73-4.56 13.1-0.316 0.91-0.632 1.82-0.957 2.76-0.605 1.74-1.21 3.49-1.81 5.23-0.273 0.786-0.547 1.57-0.828 2.38-0.238 0.69-0.476 1.38-0.722 2.09-0.795 2.07-1.74 4.01-2.76 5.97-3.77 0.087-7.54 0.14-11.3 0.188-1.07 0.0251-2.14 0.0503-3.25 0.0762-1.03 0.00967-2.06 0.0193-3.12 0.0293-0.948 0.0157-1.9 0.0314-2.87 0.0476-2.45-0.341-2.45-0.341-4.16-1.57-1.51-2.08-2.35-4.02-3.23-6.44-0.35-0.945-0.701-1.89-1.06-2.86-0.369-1.02-0.738-2.04-1.12-3.1-0.389-1.06-0.778-2.12-1.18-3.21-1.24-3.39-2.47-6.78-3.7-10.2-0.816-2.24-1.63-4.48-2.45-6.73-3.3-9.09-6.56-18.2-9.53-27.4-1.19-3.37-2.61-6.61-4.02-9.9-0.984-2.58-1.95-5.17-2.9-7.77-0.407-1.11-0.407-1.11-0.822-2.24-0.887-2.41-1.77-4.83-2.65-7.25-1.26-3.43-2.52-6.86-3.78-10.3-0.32-0.871-0.639-1.74-0.969-2.64-2.13-5.81-4.28-11.6-6.45-17.4-0.283-0.76-0.567-1.52-0.859-2.3-0.561-1.5-1.12-3.01-1.68-4.51-3.86-10.3-7.69-20.7-11.3-31.1-3.95-11.4-8.2-22.8-12.4-34.1-1.09-2.96-2.16-5.91-3.24-8.87-1.49-4.11-3.01-8.21-4.54-12.3-0.434-1.16-0.868-2.33-1.31-3.53-0.897-2.41-1.8-4.81-2.7-7.22-0.43-1.16-0.86-2.31-1.3-3.5-0.388-1.04-0.776-2.08-1.18-3.15-1.71-4.87-1.71-4.87-1.97-6.76 2.67-2.67 4.67-2.25 8.3-2.28z"/>
<path transform="translate(309 626)" d="m0 0c1.3 3.26e-4 1.3 3.26e-4 2.62 6.59e-4 0.996-0.0046 1.99-0.0092 3.02-0.0139 1.65 0.00772 1.65 0.00772 3.34 0.0156 1.16-0.00241 2.33-0.00483 3.53-0.00732 3.24-0.00468 6.49-3.29e-4 9.73 0.00776 3.49 0.00656 6.99 0.00163 10.5-0.00188 6.85-0.00505 13.7 6.09e-4 20.5 0.00985 7.97 0.0104 15.9 0.0103 23.9 0.00983 14.2-5.01e-4 28.4 0.00867 42.6 0.0232 13.8 0.0141 27.6 0.0212 41.4 0.0205 0.85-4e-5 1.7-7.99e-5 2.58-1.21e-4 0.849-4.04e-5 1.7-8.07e-5 2.57-1.22e-4 15.7-6.89e-4 31.4 0.0052 47.1 0.0142 5.56 0.00302 11.1 0.00408 16.7 0.00453 6.77 6.81e-4 13.5 0.00512 20.3 0.0143 3.46 0.00463 6.91 0.00766 10.4 0.00641 3.74-4.87e-4 7.48 0.00513 11.2 0.0124 1.1-0.00155 2.21-0.0031 3.35-0.00469 1.49 0.00484 1.49 0.00484 3.01 0.00977 0.864 7.04e-4 1.73 0.00141 2.62 0.00213 1.95 0.126 1.95 0.126 2.95 1.13 0.0884 2.38 0.115 4.72 0.0977 7.1-0.00212 1.06-0.00212 1.06-0.00429 2.15-0.00561 2.27-0.0182 4.54-0.0309 6.82-0.00501 1.54-0.00958 3.07-0.0137 4.61-0.011 3.78-0.0283 7.55-0.0488 11.3-1.06 0.0251-2.12 0.0501-3.21 0.0759-3.98 0.0952-7.96 0.195-11.9 0.296-1.71 0.0429-3.43 0.0846-5.14 0.125-28 0.213-28 0.213-51.5 14.3-6.78 8.25-8.22 17.8-7.22 28.2 2.22 16 6.47 30.8 13.1 45.5 0.918 2.49 0.918 2.49 0.918 6.49h-102c-4.69-9.39-9.22-18.6-13.3-28.2-6.99-16.1-14.2-32.4-25.7-45.8-0.558-0.657-1.12-1.31-1.69-1.99-11.7-12.7-26.5-17-43.3-18-7.05-0.282-14.1-0.406-21.1-0.552-2.42-0.0515-4.84-0.109-7.27-0.167-0.748-0.0136-1.5-0.0272-2.27-0.0411-5.21-0.127-5.21-0.127-6.32-1.24-0.218-4.26-0.186-8.52-0.185-12.8-0.00218-2.14-0.0203-4.28-0.0393-6.43-0.00293-1.36-0.00492-2.71-0.00586-4.07-0.00411-1.24-0.00822-2.48-0.0125-3.76 0.28-3.42 0.75-4.79 4.32-5.21z"/>
<path transform="translate(672 626)" d="m0 0c0.867 2.17e-4 1.73 4.35e-4 2.63 6.59e-4 1.5-0.0069 1.5-0.0069 3.03-0.0139 1.11 0.00514 2.21 0.0103 3.35 0.0156 1.17-0.00241 2.34-0.00483 3.54-0.00732 3.25-0.00468 6.51-3.28e-4 9.76 0.00776 3.51 0.00656 7.01 0.00163 10.5-0.00188 6.87-0.00505 13.7 6.09e-4 20.6 0.00985 7.99 0.0104 16 0.0103 24 0.00983 14.3-5.01e-4 28.5 0.00867 42.8 0.0232 13.9 0.0141 27.7 0.0212 41.6 0.0205 1.28-5.99e-5 1.28-5.99e-5 2.59-1.21e-4 0.852-4.04e-5 1.7-8.07e-5 2.58-1.22e-4 15.7-6.89e-4 31.5 0.0052 47.2 0.0142 5.58 0.00302 11.2 0.00408 16.7 0.00453 6.79 6.81e-4 13.6 0.00512 20.4 0.0143 3.47 0.00463 6.94 0.00766 10.4 0.00641 3.75-4.87e-4 7.5 0.00513 11.3 0.0124 1.66-0.00232 1.66-0.00232 3.36-0.00469 1.5 0.00484 1.5 0.00484 3.02 0.00977 1.3 0.00106 1.3 0.00106 2.63 0.00213 1.96 0.126 1.96 0.126 2.96 1.13 0.1 2.03 0.131 4.05 0.133 6.08 0.00129 1.24 0.00258 2.48 0.00391 3.76-0.00387 1.31-0.00773 2.62-0.0117 3.97 0.00387 1.3 0.00773 2.59 0.0117 3.93-0.00193 1.87-0.00193 1.87-0.00391 3.78-0.00113 1.15-0.00226 2.29-0.00342 3.47-0.11 2.55-0.467 4.57-1.13 7.01-0.732 0.00809-1.46 0.0162-2.22 0.0245-6.93 0.0783-13.9 0.166-20.8 0.263-3.56 0.0497-7.12 0.0961-10.7 0.134-4.1 0.0443-8.21 0.104-12.3 0.164-1.27 0.0116-2.53 0.0231-3.84 0.035-11.7 0.194-22.6 1.67-31.7 9.78-9.5 10.5-10.1 22-9.45 35.6 0.65 8.28 2.73 16.2 4.88 24.2 0.367 1.37 0.367 1.37 0.741 2.77 1.52 5.47 3.34 10.6 5.62 15.8 0.765 2.2 0.765 2.2 0.765 6.2h-105c-1.96-5.23-3.62-10-5.06-15.4-7.65-26.7-18.5-53.8-40.6-71.8-14.7-8.04-31.3-6.99-47.6-7.42-1.25-0.0374-2.49-0.0748-3.78-0.113-1.13-0.0303-2.25-0.0606-3.42-0.0918-2.57-0.189-2.57-0.189-3.57-1.19-0.218-4.26-0.186-8.52-0.185-12.8-0.00218-2.14-0.0203-4.28-0.0393-6.43-0.00293-1.36-0.00492-2.71-0.00586-4.07-0.00411-1.24-0.00822-2.48-0.0125-3.76 0.281-3.43 0.752-4.79 4.32-5.21z"/>
<path transform="translate(1051 626)" d="m0 0c1.39 0.00772 1.39 0.00772 2.81 0.0156 0.981-0.00241 1.96-0.00483 2.97-0.00732 3.31-0.00566 6.62 0.00305 9.92 0.0116 2.36-0.00107 4.73-0.00301 7.09-0.00575 5.76-0.00436 11.5 6.08e-4 17.3 0.00985 6.71 0.0104 13.4 0.0103 20.1 0.00983 12-5.01e-4 23.9 0.00867 35.9 0.0232 11.6 0.0141 23.2 0.0212 34.9 0.0205 0.716-4e-5 1.43-7.99e-5 2.17-1.21e-4 0.715-4.04e-5 1.43-8.07e-5 2.17-1.22e-4 13.2-6.89e-4 26.4 0.0052 39.6 0.0142 4.68 0.00302 9.36 0.00408 14 0.00453 6.29 1e-3 12.6 0.00708 18.9 0.0172 2.32 0.00293 4.63 0.00415 6.95 0.00357 3.15-4.87e-4 6.3 0.00513 9.44 0.0124 0.93-0.00155 1.86-0.0031 2.82-0.00469 6.29 0.0242 6.29 0.0242 7.4 1.14 0.0884 2.38 0.115 4.72 0.0977 7.1-0.00212 1.06-0.00212 1.06-0.00429 2.15-0.00561 2.27-0.0182 4.54-0.0309 6.82-0.00501 1.54-0.00958 3.07-0.0137 4.61-0.011 3.78-0.0283 7.55-0.0488 11.3-1.62 0.0297-1.62 0.0297-3.28 0.0601-4.08 0.077-8.16 0.166-12.2 0.257-1.75 0.0379-3.51 0.0728-5.26 0.104-18.6 0.34-35 1.9-51.2 11.6-0.92 0.538-1.84 1.08-2.79 1.63-6.77 4.11-12.6 8.83-18.2 14.4-0.665 0.652-1.33 1.3-2.02 1.98-16.2 17.1-24.3 38.8-31.2 60.8-0.737 2.19-0.737 2.19-1.74 4.19h-41c-1.02-4.09-0.862-5.78-0.0391-9.8 0.224-1.12 0.449-2.25 0.68-3.41 0.364-1.76 0.364-1.76 0.734-3.55 4.32-21.3 6.54-42.3-5.74-61.4-2.3-3.49-2.3-3.49-5.64-5.88v-2c-0.721-0.277-1.44-0.554-2.18-0.84-2.82-1.16-2.82-1.16-5.29-2.41-0.855-0.432-1.71-0.864-2.59-1.31-0.837-0.434-1.67-0.869-2.54-1.32-11.1-3.66-24.4-2.42-36-2.67-2.35-0.0515-4.69-0.109-7.04-0.167-0.723-0.0136-1.45-0.0272-2.19-0.0411-5.03-0.127-5.03-0.127-6.14-1.24-0.218-4.26-0.186-8.52-0.185-12.8-0.00218-2.14-0.0203-4.28-0.0393-6.43-0.00293-1.36-0.00492-2.71-0.00586-4.07-0.00411-1.24-0.00822-2.48-0.0125-3.76 0.477-5.82 3.72-5.2 8.78-5.23z"/>
<path transform="translate(628 811)" d="m0 0c1.17-0.00953 2.33-0.0191 3.53-0.0289 1.27 9.11e-4 2.54 0.00182 3.85 0.00276 1.31-0.00429 2.62-0.00857 3.97-0.013 2.79-0.00748 5.58-0.00716 8.37-0.00191 2.83 0.00459 5.66-0.00211 8.49-0.0205 43.3-0.279 43.3-0.279 54.2 8.34 6.28 6.93 9.53 14.2 9.24 23.6-0.849 8.38-3.64 15-10.2 20.4-5.97 3.65-12.2 6.45-19 8v2c1.2 0.495 2.39 0.99 3.62 1.5 7.79 3.97 11.2 11.2 14.1 19.1 2.83 9.29 4.13 19.1 5.74 28.7 0.412 2.28 0.897 4.49 1.49 6.73 1.28 0.0619 2.56 0.124 3.88 0.188 0.719 0.0348 1.44 0.0696 2.18 0.105 0.642-0.0967 1.28-0.193 1.95-0.293 2.77-4.16 2.78-8.17 3.34-13.1 0.66-2.93 0.66-2.93 3.66-4.93 2.26 2.26 1.31 6.94 1.31 9.99-0.119 5.93-0.924 11.1-4.31 16-5.02 4.26-10.6 5.41-17 5-5.33-1.08-9.73-2.55-13-7.17-4.32-8.07-4.73-17.3-5.48-26.3-0.943-15.7-0.943-15.7-7.5-29.6v-2h-2v-2c-5.66-0.967-11.1-1.15-16.9-1.12-0.866-0.00387-1.73-0.00773-2.62-0.0117-0.822 0.00129-1.64 0.00258-2.49 0.00391-0.746 0.00113-1.49 0.00226-2.26 0.00342-1.78-0.0596-1.78-0.0596-2.75 1.13-0.0989 1.74-0.128 3.48-0.129 5.22-0.00473 1.67-0.00473 1.67-0.00955 3.38 0.00202 1.21 0.00405 2.43 0.00613 3.68-9.57e-4 1.24-0.00191 2.47-0.0029 3.75-8.57e-4 3.3 0.00318 6.59 0.00876 9.89 0.00195 2.02 9.26e-6 4.04-0.00342 6.07-0.00616 3.87-0.00543 7.74-0.00244 11.6-0.00202 1.21-0.00405 2.42-0.00613 3.67 0.00315 1.12 0.0063 2.24 0.00955 3.39 7.96e-4 0.987 0.00159 1.97 0.00241 2.99-0.0291 2.38-0.0291 2.38 1.13 4.36 5.94 0.33 11.9 0.66 18 1 0.33 1.65 0.66 3.3 1 5-18.1 1-35.9 0.902-54 0 0-4 0-4 1-5 4.95-0.33 9.9-0.66 15-1-0.33-37.6-0.66-75.2-1-114-2.83-1.42-5.47-1.35-8.62-1.56-1.19-0.0838-2.38-0.168-3.6-0.254-0.915-0.0606-1.83-0.121-2.77-0.184-0.625-1.88-0.625-1.88-1-4 2.65-2.65 3.86-2.26 7.56-2.27z"/>
<path transform="translate(566 820)" d="m0 0c12.5 11.8 14.8 30.3 15.4 46.6 1.14 49.3 1.14 49.3-12.4 64-7.57 6.76-14 7.45-24.1 7.23-7.58-0.733-12.7-3.55-17.6-9.35-0.681-0.743-1.36-1.49-2.06-2.25-9.62-13.7-10.1-30.8-10.1-46.9 0.00533-2.18 4.17e-5 -4.36-0.00635-6.54-0.0115-16.9 0.773-34.1 11.1-48.3 10.6-10.6 27.2-14.2 39.7-4.44z" fill="#FDFDFD"/>
<path transform="translate(306 811)" d="m0 0c0.958-0.00315 1.92-0.0063 2.9-0.00955 1.55 0.00304 1.55 0.00304 3.14 0.00613 1.06-9.57e-4 2.12-0.00191 3.21-0.0029 2.24-6.81e-4 4.49 0.00117 6.73 0.00534 3.45 0.00535 6.9 5.05e-5 10.3-0.00635 2.18 6.61e-4 4.35 0.00194 6.53 0.00391 1.56-0.00304 1.56-0.00304 3.15-0.00613 1.43 0.00473 1.43 0.00473 2.89 0.00955 1.27 0.00119 1.27 0.00119 2.56 0.00241 1.93 0.127 1.93 0.127 2.93 1.13 0.0406 1.67 0.0427 3.33 0 5-1.16 0.164-1.16 0.164-2.34 0.332-1 0.159-2.01 0.317-3.04 0.48-1.5 0.226-1.5 0.226-3.02 0.457-2.93 0.518-2.93 0.518-4.6 3.73 0.504 15.7 8.11 32.8 12.6 47.7 1.79 5.92 3.56 11.9 5.19 17.8 0.268 0.975 0.536 1.95 0.813 2.96 0.489 1.8 0.97 3.6 1.44 5.4 1.23 4.87 1.23 4.87 4.94 8.12 0.364-1.76 0.364-1.76 0.734-3.55 1.39-6.23 3.17-12.4 4.92-18.5 3.77-13.2 7.37-26.4 10.8-39.8 0.54-2.04 1.14-4.05 1.76-6.06 1.14-4.31 0.754-6.8-0.172-11.1-1.45-2.32-1.45-2.32-3-4v-2c-0.915-0.098-1.83-0.196-2.77-0.297-1.78-0.224-1.78-0.224-3.6-0.453-1.18-0.139-2.37-0.278-3.59-0.422-3.04-0.828-3.04-0.828-4.45-2.91-0.193-0.634-0.387-1.27-0.586-1.92 2-2 2-2 4.13-2.25 0.881 0.00143 1.76 0.00285 2.67 0.00432 1.5-0.00461 1.5-0.00461 3.02-0.00932 1.08 0.00719 2.16 0.0144 3.27 0.0218 1.66 6.87e-4 1.66 6.87e-4 3.35 0.00139 2.34 0.00302 4.68 0.0109 7.01 0.0233 3.59 0.0183 7.19 0.0205 10.8 0.0203 2.27 0.00492 4.53 0.0107 6.8 0.0176 1.08 0.00111 2.16 0.00223 3.28 0.00337 0.995 0.00638 1.99 0.0128 3.01 0.0193 0.88 0.00381 1.76 0.00762 2.67 0.0116 2 0.134 2 0.134 3 1.13 0.0406 1.67 0.0427 3.33 0 5-1.26 0.147-1.26 0.147-2.55 0.297-1.64 0.224-1.64 0.224-3.32 0.453-1.09 0.139-2.18 0.278-3.3 0.422-2.83 0.558-2.83 0.558-4.2 2.41-1.81 7.11-0.108 13.4 1.88 20.2 0.266 0.945 0.533 1.89 0.807 2.86 2.8 9.86 5.72 19.7 8.67 29.5 1.38 4.6 2.7 9.22 3.98 13.8 0.312 1.11 0.624 2.22 0.946 3.37 0.593 2.12 1.18 4.24 1.75 6.37 0.265 0.941 0.53 1.88 0.803 2.85 0.227 0.828 0.453 1.66 0.687 2.51 0.283 0.623 0.565 1.25 0.856 1.89 1.49 0.495 1.49 0.495 3 1 0.322-1.05 0.643-2.1 0.975-3.18 1.51-4.92 3.02-9.84 4.53-14.8 0.407-1.33 0.407-1.33 0.823-2.68 3.69-12 7.42-24 11.4-35.9 2.14-6.56 3.47-12.6 3.64-19.6 0.0374-1.01 0.0748-2.03 0.113-3.07-0.219-2.89-0.219-2.89-2.09-5.11-2.75-2-4.6-2.37-7.96-2.76-2.91-0.348-2.91-0.348-5.38-0.938-0.99-1.49-0.99-1.49-2-3 1.62-1.97 2.51-2.91 5.06-3.37 0.79 0.00365 1.58 0.00729 2.39 0.011 0.897-3e-3 1.79-6e-3 2.72-0.00909 0.966 0.0123 1.93 0.0247 2.93 0.0374 0.992 0.00187 1.98 0.00375 3.01 0.00568 2.1 0.00672 4.19 0.0206 6.29 0.0412 3.22 0.0312 6.44 0.041 9.67 0.0469 2.03 0.00917 4.07 0.0195 6.1 0.0312 1.45 0.00637 1.45 0.00637 2.94 0.0129 0.891 0.00961 1.78 0.0192 2.7 0.0291 0.788 0.00683 1.58 0.0137 2.39 0.0207 1.81 0.14 1.81 0.14 2.81 1.14 0.0406 1.67 0.0427 3.33 0 5-0.978 0.0387-0.978 0.0387-1.98 0.0781-5.73 0.372-9.61 0.933-14 4.92-1.62 2.38-2.82 4.42-4 7-0.316 0.686-0.632 1.37-0.957 2.08-2.59 6.07-4.38 12.3-6.19 18.7-1.12 3.89-2.33 7.64-3.92 11.4-1.62 3.84-2.72 7.65-3.75 11.7-2.54 9.9-5.89 19.5-9.19 29.2-2.69 7.91-5.27 15.8-7.56 23.9-1.71 5.97-3.69 11.5-6.44 17.1-1.65-0.33-3.3-0.66-5-1-3.02-8.59-5.66-17.2-8-26-2.02-7.57-4.25-15-6.79-22.4-2.28-6.81-4.25-13.7-6.21-20.6-0.265-0.935-0.53-1.87-0.804-2.83-0.844-2.99-1.68-5.98-2.51-8.98-0.267-0.949-0.534-1.9-0.808-2.88-0.245-0.893-0.49-1.79-0.742-2.7-0.22-0.793-0.439-1.59-0.665-2.4-0.471-2.2-0.471-2.2-0.471-6.2h-2c-0.182 0.785-0.364 1.57-0.551 2.38-1.4 5.84-3.08 11.1-5.45 16.6-0.443 1.64-0.854 3.29-1.25 4.95-2.03 8.28-4.3 16.5-6.57 24.7-0.75 2.72-1.5 5.45-2.24 8.17-0.481 1.75-0.962 3.5-1.44 5.25-0.221 0.806-0.442 1.61-0.669 2.44-1.16 4.2-2.42 8.34-3.83 12.5-0.427 1.41-0.846 2.82-1.25 4.23-0.215 0.739-0.429 1.48-0.65 2.24-0.443 1.53-0.886 3.07-1.33 4.6-1.66 5.72-1.66 5.72-2.77 7.93-2.31 0-2.31 0-5-1-3.13-7.07-5-14.6-7.12-22.1-0.395-1.37-0.79-2.74-1.19-4.11-0.821-2.85-1.64-5.7-2.46-8.55-1.75-6.09-3.52-12.2-5.29-18.3-0.567-1.95-1.13-3.9-1.7-5.85-0.733-2.52-1.47-5.05-2.2-7.57-0.674-2.32-1.35-4.64-2.02-6.96-1.73-5.96-3.47-11.9-5.21-17.9-0.819-2.8-1.63-5.61-2.43-8.41-0.52-1.79-1.04-3.57-1.56-5.36-0.226-0.795-0.452-1.59-0.684-2.41-1.36-4.61-3.06-8.74-5.35-13-0.776-1.63-0.776-1.63-0.776-3.63-1.13-0.0606-2.26-0.121-3.43-0.184-1.48-0.0844-2.96-0.169-4.45-0.254-0.746-0.0393-1.49-0.0786-2.26-0.119-5.64-0.33-5.64-0.33-7.86-1.44 2.1-4.66 3.62-5.12 8.62-5.13z"/>
<path transform="translate(753 811)" d="m0 0c0.868 0.00222 1.74 0.00444 2.63 0.00673 0.981 7.55e-5 1.96 1.51e-4 2.97 2.29e-4 1.07 0.00516 2.13 0.0103 3.23 0.0156 1.09 0.00141 2.17 0.00283 3.29 0.00429 3.48 0.00562 6.97 0.0182 10.5 0.0309 2.36 0.00501 4.71 0.00958 7.07 0.0137 5.79 0.0111 11.6 0.0278 17.4 0.0488 0.495 2.97 0.495 2.97 1 6-1.61 0.199-1.61 0.199-3.25 0.402-1.4 0.178-2.79 0.357-4.19 0.535-0.707 0.087-1.41 0.174-2.14 0.264-3.51 0.181-3.51 0.181-6.42 1.8-0.0936 1.72-0.117 3.44-0.114 5.16 7.55e-5 1.1 1.51e-4 2.2 2.29e-4 3.34 0.00516 1.2 0.0103 2.4 0.0156 3.63 0.00141 1.22 0.00283 2.44 0.00429 3.7 0.00562 3.91 0.0182 7.83 0.0309 11.7 0.00501 2.65 0.00958 5.29 0.0137 7.94 0.0111 6.5 0.0278 13 0.0488 19.5 3.4-1.99 6.18-3.93 8.96-6.73 0.719-0.721 1.44-1.44 2.18-2.19 0.737-0.75 1.47-1.5 2.23-2.27 0.73-0.73 1.46-1.46 2.21-2.21 4.14-4.17 8.07-8.46 11.9-12.9 1.72-1.93 3.55-3.58 5.57-5.19 6.96-5.93 6.96-5.93 10.4-14.1 0.102-4.38 0.0427-6.65-2.44-10.4-2.18-1.01-2.18-1.01-4.62-1.69-0.817-0.251-1.63-0.503-2.48-0.762-0.626-0.182-1.25-0.364-1.9-0.551 0-4 0-4 1-5 1.41-0.098 2.82-0.128 4.23-0.129 1.35-0.00473 1.35-0.00473 2.72-0.00955 0.976 0.00202 1.95 0.00405 2.96 0.00613 0.995-9.57e-4 1.99-0.00191 3.02-0.0029 2.11-6.82e-4 4.22 0.00117 6.33 0.00534 3.24 0.00535 6.48 5.54e-5 9.72-0.00635 2.04 6.61e-4 4.09 0.00194 6.13 0.00391 1.46-0.00304 1.46-0.00304 2.96-0.00613 0.898 0.00315 1.8 0.0063 2.72 0.00955 0.794 7.96e-4 1.59 0.00159 2.41 0.00241 1.82 0.127 1.82 0.127 2.82 1.13 0.0406 1.67 0.0427 3.33 0 5-0.82 0.182-1.64 0.364-2.48 0.551-1.08 0.251-2.16 0.503-3.27 0.762-1.07 0.244-2.13 0.487-3.23 0.738-2.96 0.931-4.63 2.03-7.02 3.95h-2c-0.26 0.597-0.519 1.19-0.787 1.81-1.31 2.36-2.54 3.55-4.62 5.25-5.06 4.29-9.82 8.88-14.5 13.5-1 0.984-2.01 1.96-3.02 2.93-1.48 1.43-2.95 2.87-4.41 4.32-0.866 0.846-1.73 1.69-2.62 2.56-2.33 3-2.87 4.82-3.01 8.59 0.541 2.11 0.541 2.11 1.67 3.97 0.392 0.724 0.785 1.45 1.19 2.19 0.439 0.771 0.878 1.54 1.33 2.34 0.453 0.825 0.905 1.65 1.37 2.5 0.971 1.77 1.95 3.53 2.93 5.29 1.49 2.67 2.94 5.35 4.39 8.04 3.01 5.58 6.06 11.1 9.12 16.7 0.568 1.03 1.14 2.07 1.72 3.14 1.73 3.15 3.47 6.29 5.22 9.43 0.531 0.97 1.06 1.94 1.61 2.94 5.01 8.99 5.01 8.99 13.5 14.5 1.57 0.422 3.16 0.797 4.75 1.12 0.799 0.168 1.6 0.335 2.42 0.508 0.603 0.121 1.21 0.242 1.83 0.367 0.33 1.65 0.66 3.3 1 5-7.51 0.0253-15 0.0428-22.5 0.0549-2.56 0.00504-5.11 0.0119-7.67 0.0205-3.67 0.0121-7.34 0.0178-11 0.0222-1.15 0.00516-2.3 0.0103-3.48 0.0156-1.06 7.55e-5 -2.12 1.51e-4 -3.21 2.29e-4 -0.937 0.00222-1.87 0.00444-2.84 0.00673-2.25-0.12-2.25-0.12-4.25-1.12 0.875-3.88 0.875-3.88 2-5 2.53-0.237 5.03-0.422 7.56-0.562 0.711-0.0432 1.42-0.0864 2.15-0.131 1.76-0.106 3.52-0.207 5.28-0.307-1.9-8.39-5.68-15.5-9.83-22.9-4.65-8.36-9.14-16.8-13.5-25.3-0.545-1.05-1.09-2.09-1.65-3.17-1.33-2.55-2.65-5.09-3.97-7.64-6.38 2.27-12 5.7-15 12-1.69 7.69-0.984 15.8-0.688 23.6 0.0416 2.16 0.0788 4.32 0.111 6.49 0.0746 3.93 0.162 7.85 0.304 11.8 0.0419 1.18 0.0419 1.18 0.0847 2.38-0.00122 1.82-0.00122 1.82 1.19 2.8 2.35 0.235 4.71 0.414 7.06 0.562 1.94 0.126 1.94 0.126 3.91 0.254 0.999 0.0606 2 0.121 3.03 0.184 0.33 1.65 0.66 3.3 1 5h-51c0-4 0-4 1-5 7.92-0.495 7.92-0.495 16-1-0.33-37.6-0.66-75.2-1-114-4.06-1.35-8.03-1.43-12.3-1.72-2.71-0.281-2.71-0.281-4.71-1.28 1.12-4.95 1.12-4.95 3.98-5.12z"/>
<path transform="translate(916 810)" d="m0 0c3.13 0.554 4.75 0.93 7.12 2.98 1.9 2.83 3.31 5.5 4.5 8.7 1.34 3.36 3.35 6.31 5.27 9.36 0.747 1.26 1.49 2.52 2.23 3.78 2.94 4.95 6.08 9.75 9.23 14.6 2.13 3.35 4.08 6.76 6.04 10.2 1.18 1.94 2.37 3.88 3.56 5.81 2.41 3.9 4.81 7.8 7.19 11.7 6.37 10.5 6.37 10.5 13.1 20.8 0.99 1.48 1.88 3.02 2.76 4.57 1.52 2.35 3.12 3.51 5.38 5.12-0.0381-10.3-0.0976-20.6-0.184-30.9-0.0394-4.78-0.0716-9.56-0.0871-14.3-0.0152-4.62-0.0497-9.23-0.0973-13.8-0.0148-1.76-0.0227-3.51-0.0236-5.27-0.00238-2.47-0.0295-4.94-0.0622-7.41 0.00503-0.719 0.0101-1.44 0.0152-2.18-0.108-5.29-1.46-9.72-4.56-14.1-2.83-1.5-2.83-1.5-6-2-2.02-0.609-4.02-1.26-6-2-0.495-0.99-0.495-0.99-1-2 2.44-2.87 2.84-2.99 6.9-3.36 1.63-0.00629 3.26 0.00423 4.88 0.0283 0.859 0.00187 1.72 0.00375 2.6 0.00568 1.81 0.00672 3.63 0.0206 5.44 0.0412 2.79 0.0312 5.57 0.041 8.36 0.0469 1.76 0.00917 3.52 0.0195 5.28 0.0312 0.839 0.00425 1.68 0.0085 2.54 0.0129 5.87 0.0731 5.87 0.0731 6.98 1.19 0.0406 1.67 0.0427 3.33 0 5-0.675 0.121-1.35 0.242-2.05 0.367-1.34 0.251-1.34 0.251-2.7 0.508-0.882 0.162-1.76 0.325-2.67 0.492-2.54 0.623-4.36 1.26-6.58 2.63-3.6 6.16-3.44 13.5-3.43 20.4-0.0102 1.1-0.0204 2.21-0.0309 3.34-0.03 3.62-0.0394 7.24-0.0485 10.9-0.0169 2.52-0.035 5.04-0.0544 7.56-0.0426 5.94-0.0722 11.9-0.0953 17.8-0.0271 6.77-0.071 13.5-0.116 20.3-0.0926 13.9-0.164 27.8-0.222 41.7-5.7 0.226-5.7 0.226-8.43-1.8-3.8-4.32-6.65-9.42-9.63-14.3-1.34-2.17-2.68-4.34-4.02-6.51-0.662-1.08-1.32-2.15-2.01-3.26-2.69-4.36-5.42-8.7-8.16-13-0.483-0.764-0.965-1.53-1.46-2.32-3.76-5.95-7.59-11.9-11.4-17.8-3.39-5.23-6.66-10.5-9.91-15.8-3.56-5.78-7.25-11.5-11-17.2-0.442-0.68-0.885-1.36-1.34-2.06-1.36-2.09-2.73-4.17-4.1-6.25-0.425-0.653-0.85-1.31-1.29-1.98-2.12-3.4-2.12-3.4-5.27-5.71v93h2v2c3.01 1.62 5.97 2.68 9.25 3.62 0.892 0.26 1.78 0.521 2.7 0.789 0.675 0.193 1.35 0.387 2.05 0.586 0.33 1.65 0.66 3.3 1 5h-41v-4c1.22-0.433 2.43-0.866 3.69-1.31 4.8-1.81 8.4-3.32 11.3-7.69 0.297-2.07 0.297-2.07 0.247-4.37 0.00419-0.893 0.00839-1.79 0.0127-2.71-0.00562-0.977-0.0112-1.95-0.017-2.96 0.0019-1.03 0.0038-2.06 0.00575-3.12 0.00371-3.42-7e-3 -6.83-0.0182-10.2-0.00119-2.37-0.00164-4.73-0.00139-7.1-0.00157-4.96-0.00986-9.93-0.0233-14.9-0.017-6.37-0.0208-12.7-0.0201-19.1-2.71e-4 -4.89-0.00575-9.78-0.013-14.7-0.00319-2.35-0.00515-4.7-0.00589-7.05-0.00216-3.28-0.0109-6.56-0.0216-9.84 4.53e-4 -0.979 9.06e-4 -1.96 0.00137-2.97-0.00426-0.89-0.00853-1.78-0.0129-2.7-0.00168-0.776-0.00335-1.55-0.00508-2.35-0.0125-1.98-0.0125-1.98-1.13-3.89-3.16-1.05-5.87-1.31-9.19-1.56-1.09-0.0838-2.17-0.168-3.29-0.254-0.831-0.0606-1.66-0.121-2.52-0.184-0.33-0.99-0.66-1.98-1-3 5.07-6.83 22.8-4.21 30.6-3.6z"/>
<path transform="translate(1032 811)" d="m0 0c0.911 0.00202 1.82 0.00405 2.76 0.00613 0.954-0.00175 1.91-0.0035 2.89-0.00531 3.17-0.00442 6.34-0.00148 9.51 0.00189 2.19-6.73e-4 4.39-0.00164 6.58-0.0029 4.6-0.00148 9.21 6.78e-4 13.8 0.00534 5.92 0.0057 11.8 0.00242 17.7-0.00357 4.53-0.0036 9.06-0.00247 13.6 1.28e-4 2.18 6.69e-4 4.36-1.6e-4 6.55-0.00248 3.04-0.00253 6.09 0.00131 9.13 0.0069 0.911-0.00202 1.82-0.00405 2.76-0.00613 6.22 0.0213 6.22 0.0213 7.33 1.14 0.16 2.96 0.26 5.89 0.316 8.85 0.0208 0.886 0.0416 1.77 0.063 2.69 0.0656 2.84 0.124 5.69 0.183 8.53 0.0432 1.92 0.0868 3.85 0.131 5.77 0.107 4.72 0.209 9.45 0.307 14.2-1.65-0.33-3.3-0.66-5-1-0.147-0.883-0.294-1.77-0.445-2.68-2-10.7-5.02-20-13.6-27.2-5.26-2.94-10.9-3.42-16.8-3.39-0.713-0.00191-1.43-0.00383-2.16-0.0058-1.49-0.00135-2.99 0.00227-4.48 0.0107-2.28 0.0108-4.57 4.58e-5 -6.85-0.0127-1.46 0.00132-2.92 0.00388-4.38 0.00781-1.32 0.00226-2.63 0.00451-3.99 0.00684-3.11 0.239-4.84 0.504-7.37 2.26-1.21 2.42-1.12 3.93-1.11 6.63 7.55e-5 0.961 1.51e-4 1.92 2.29e-4 2.91 0.00516 1.04 0.0103 2.08 0.0156 3.15 0.00141 1.06 0.00283 2.13 0.00429 3.22 0.00561 3.4 0.0182 6.81 0.0309 10.2 0.00501 2.3 0.00958 4.61 0.0137 6.91 0.011 5.65 0.0278 11.3 0.0488 17 3.23 0.0875 6.46 0.141 9.69 0.188 0.912 0.0251 1.82 0.0503 2.76 0.0762 6.78 0.0853 6.78 0.0853 12.5-3.26 3.01-5.24 3.66-10.5 4.38-16.4 0.625-2.57 0.625-2.57 3.62-4.57 1 1 1 1 1.12 3.25-0.00222 0.993-0.00444 1.99-0.00673 3.01-1.13e-4 1.68-1.13e-4 1.68-2.29e-4 3.4-0.00516 1.22-0.0103 2.44-0.0156 3.7-0.00141 1.24-0.00283 2.48-0.00429 3.76-0.00466 3.31-0.0137 6.61-0.0247 9.92-0.0102 3.37-0.0148 6.74-0.0198 10.1-0.0111 6.62-0.0278 13.2-0.0488 19.9-1.98-0.495-1.98-0.495-4-1-0.159-1-0.317-2-0.48-3.04-1.25-7.31-2.32-13.4-7.52-19-2.33-1.17-3.72-1.13-6.32-1.13-0.846-0.00129-1.69-0.00258-2.56-0.00391-0.885 0.00387-1.77 0.00773-2.68 0.0117-0.889-0.00387-1.78-0.00773-2.69-0.0117-0.845 0.00129-1.69 0.00258-2.56 0.00391-0.778 0.00113-1.56 0.00226-2.36 0.00342-1.85-0.0697-1.85-0.0697-2.83 1.13-0.123 1.63-0.178 3.26-0.205 4.89-0.0199 1.04-0.0399 2.08-0.0604 3.15-0.0251 1.7-0.0251 1.7-0.0506 3.43-0.0208 1.15-0.0416 2.31-0.063 3.49-0.0656 3.7-0.124 7.4-0.183 11.1-0.0432 2.5-0.0868 5-0.131 7.5-0.107 6.15-0.209 12.3-0.307 18.4 5.36 1.79 11.2 1.19 16.8 1.19 2.25 0.00217 4.51 0.0203 6.76 0.0393 14.8 0.378 14.8 0.378 27.9-5.57 7.38-8 9.56-20.6 11.6-30.9 0.938-3.75 0.938-3.75 3.94-5.75 1 1 1 1 1.13 3.28-0.0199 8.18-0.26 16.4-0.57 24.5-0.0587 1.59-0.0587 1.59-0.119 3.21-0.0631 1.54-0.0631 1.54-0.127 3.12-0.0367 0.911-0.0733 1.82-0.111 2.76-0.173 2.61-0.424 5.19-0.718 7.79-0.091 0.807-0.182 1.61-0.276 2.45-0.105 0.921-0.105 0.921-0.212 1.86-12.7 0.0463-25.5 0.0818-38.2 0.104-5.91 0.0104-11.8 0.0246-17.7 0.0473-5.7 0.0217-11.4 0.0337-17.1 0.0389-2.18 0.0037-4.35 0.0109-6.53 0.0217-3.04 0.0145-6.09 0.0165-9.13 0.0156-0.906 0.00719-1.81 0.0144-2.74 0.0218-0.829-0.00275-1.66-0.0055-2.51-0.00833-0.72 0.00184-1.44 0.00369-2.18 0.00559-1.9-0.246-1.9-0.246-4.9-2.25 0.66-1.32 1.32-2.64 2-4 7.92-0.495 7.92-0.495 16-1-0.33-37.6-0.66-75.2-1-114-7.42-0.99-7.42-0.99-15-2l-2-1c1.27-5.62 2.59-5.12 8.33-5.14z"/>
<path transform="translate(578 820)" d="m0 0c12.7 11.9 21.2 31.4 22.2 48.7 0.616 19.3-1.75 37.6-13.1 53.8-0.378 0.603-0.755 1.21-1.14 1.83-5.68 8.73-15.9 14.8-25.8 17.7-11.9 2.5-24.7 1.09-34.9-5.36-2.82-1.96-5.49-4.02-8.14-6.2-0.648-0.522-1.3-1.04-1.96-1.58-11.4-10.2-18.3-28.6-19.2-43.6-0.677-20.9 2.82-39.3 15.1-56.8h2c0.249-0.58 0.498-1.16 0.754-1.76 4.63-8.33 15-14.1 23.7-17.1 14.8-3.63 28.9 1.09 40.5 10.4zm-50.6 3.07c-11.5 15.4-12.5 33.1-12.5 51.6-0.00219 2.13-0.0204 4.26-0.0393 6.39-0.0678 16.3 1.42 32.8 11.2 46.4 0.598 0.908 1.2 1.82 1.81 2.75 4.27 4.39 10.4 7.08 16.5 7.45 10.1 0.121 16.7-0.183 24.4-7.08 14.8-16 13-43.8 12.4-64-0.386-8.87-1.64-17.6-4.13-26.1-0.18-0.701-0.361-1.4-0.547-2.12-2.49-8.74-7.79-16.9-15.5-21.9-11.3-4.39-25-1.88-33.7 6.62z"/>
<path transform="translate(1215 818)" d="m0 0c3.59 2.32 5.79 3.22 10.1 4.09 0.66-3.3 1.32-6.6 2-10h3c5.87 11.7 2.09 33.2 2 46-1.91-0.317-1.91-0.317-4-1-1.11-2.27-1.95-4.37-2.75-6.75-2.86-7.77-6.58-14.4-11.2-21.2-0.431-0.637-0.861-1.27-1.3-1.93-5.1-6.79-12.5-10.7-20.7-12.1-7.54-0.673-13.8 1.75-20 6-5.17 6.44-6.88 12.9-6.45 21 0.864 5.68 2.83 8.62 7.34 12.3 4.99 3.47 10.6 5.46 16.2 7.62 1.12 0.439 2.23 0.877 3.39 1.33 4.53 1.77 9.07 3.52 13.6 5.22 14.2 5.29 25 11.4 31.9 25.5 2.79 9.29 2.63 22-1.44 30.8-4.78 7.9-11.3 13.8-20.2 16.6-16 2.95-29.4 0.55-42.8-8.62-0.927-0.686-1.85-1.37-2.81-2.08-3.09-2.11-3.09-2.11-8.75-2.67-0.99 4.29-1.98 8.58-3 13-4-1-4-1-5-2-0.161-2.56-0.26-5.1-0.316-7.66-0.0208-0.784-0.0416-1.57-0.063-2.38-0.0434-1.67-0.0844-3.35-0.123-5.02-0.0584-2.51-0.124-5.01-0.191-7.52-0.105-4.03-0.187-8.07-0.26-12.1-0.046-2.27-0.112-4.54-0.179-6.81-0.0284-1.37-0.0559-2.73-0.0825-4.1-0.0309-1.19-0.0617-2.39-0.0935-3.62 0.102-0.922 0.204-1.84 0.308-2.8 1.48-0.99 1.48-0.99 3-2 2.7 2.7 2.84 5.03 3.69 8.75 2.28 9.19 5.8 18.3 12 25.5 2.28 2.72 2.28 2.72 2.28 4.72h2v2c0.516 0.227 1.03 0.454 1.56 0.688 2.1 1.13 3.8 2.31 5.69 3.75 8.74 6.19 17.4 6.45 27.8 5.56 5.91-1.14 9.86-3.2 13.6-8 3.8-6.52 3.97-13.4 2.88-20.8-4.9-11.1-13.4-15.5-24.3-19.8-3.35-1.28-6.72-2.5-10.1-3.71-14-5.03-29.2-10.9-36.4-25-4.02-8.73-4.41-21.2-1.12-30.3 5.26-10.7 13.2-15.8 24.1-19.8 13.2-2.64 24.4 2.11 35.3 9.23z"/>
<path transform="translate(1272 811)" d="m0 0c0.931 0.0036 1.86 0.00719 2.82 0.0109 0.976-1.46e-4 1.95-2.92e-4 2.96-4.43e-4 3.24 7e-4 6.48 0.00849 9.72 0.0163 2.24 0.00186 4.48 0.00329 6.72 0.00429 5.91 0.00383 11.8 0.0137 17.7 0.0247 6.03 0.0102 12.1 0.0148 18.1 0.0198 11.8 0.0107 23.7 0.0278 35.5 0.0488 1.31 3.62 2.25 6.77 2.32 10.6 0.0199 0.86 0.0397 1.72 0.0602 2.61 0.0116 0.91 0.0231 1.82 0.035 2.76 0.0194 0.946 0.0387 1.89 0.0587 2.87 0.0595 3.01 0.106 6.01 0.152 9.02 0.0382 2.04 0.0773 4.09 0.117 6.13 0.0958 5 0.18 9.99 0.258 15-2.44-0.798-2.44-0.798-5-2-0.766-2.56-1.19-4.69-1.5-7.31-1.74-11.4-4.69-21.5-13.4-29.4-5.97-3.62-12.2-3.93-19.1-3.25-1.68 0.639-3.35 1.3-5 2-0.0233 14.6-0.0409 29.2-0.0518 43.8-0.00516 6.77-0.0122 13.5-0.0236 20.3-0.011 6.53-0.0168 13.1-0.0194 19.6-0.00185 2.5-0.00548 4.99-0.0109 7.49-0.00721 3.48-0.00826 6.97-0.0078 10.5-0.00539 1.57-0.00539 1.57-0.0109 3.16 0.00137 0.944 0.00275 1.89 0.00417 2.86-0.00138 1.24-0.00138 1.24-0.00279 2.5-0.0826 1.89-0.0826 1.89 1.12 2.87 1.41 0.156 2.83 0.251 4.25 0.316 0.854 0.0419 1.71 0.0838 2.59 0.127 0.898 0.0393 1.8 0.0786 2.72 0.119 0.902 0.0432 1.8 0.0864 2.73 0.131 2.23 0.106 4.47 0.208 6.71 0.307 0.33 1.65 0.66 3.3 1 5-20.1 1.28-39.9 0.739-60 0 0-4 0-4 1-5 9.9-0.495 9.9-0.495 20-1-0.33-38-0.66-75.9-1-115-14.2-0.259-14.2-0.259-26.1 5.97-3.71 4.07-5.73 9.01-7.85 14-0.318 0.692-0.637 1.38-0.965 2.1-2.56 6.01-3.2 12.5-4.04 18.9-1.65-0.33-3.3-0.66-5-1 0.0939-5.43 0.2-10.9 0.317-16.3 0.0382-1.84 0.073-3.69 0.104-5.53 0.046-2.66 0.104-5.32 0.164-7.98 0.0116-0.817 0.0231-1.63 0.035-2.48 0.378-14.8 0.378-14.8 9.85-14.9z"/>
<path transform="translate(671 817)" d="m0 0c1.29-0.0309 1.29-0.0309 2.61-0.0625 7.23-0.0436 13.7 0.98 19.5 5.5 5.11 6.57 6.83 12.1 6.62 20.4 0.00709 0.811 0.0142 1.62 0.0215 2.46-0.0645 6.15-1.03 11-5.04 15.9-0.828 0.686-0.828 0.686-1.67 1.39-0.541 0.471-1.08 0.941-1.64 1.43-7.12 4.26-15 3.53-23 3.45-1.25-6.45e-4 -2.5-0.00129-3.78-0.00195-9.2-0.0451-9.2-0.0451-10.3-1.19-0.108-1.36-0.149-2.73-0.161-4.09-0.00961-0.868-0.0192-1.74-0.0291-2.63-0.00425-0.945-0.0085-1.89-0.0129-2.86-0.0057-0.966-0.0114-1.93-0.0173-2.93-0.00947-2.05-0.016-4.1-0.0198-6.15-0.00969-3.13-0.0407-6.27-0.0723-9.4-0.00653-1.99-0.0118-3.98-0.0156-5.96-0.0123-0.939-0.0247-1.88-0.0374-2.84 0.022-6.44 0.022-6.44 1.64-9.7 4.25-3.54 10.2-2.66 15.4-2.69z" fill="#FDFDFD"/>
</svg>
